<svg xmlns="http://www.w3.org/2000/svg" xmlns:xlink="http://www.w3.org/1999/xlink" width="500" zoomAndPan="magnify" viewBox="0 0 375 374.999991" height="500" preserveAspectRatio="xMidYMid meet" version="1.2"><defs><clipPath id="6514e59d1f"><path d="M 183.03125 8.621094 L 192.441406 8.621094 L 192.441406 302.757812 L 183.03125 302.757812 Z M 183.03125 8.621094 "/></clipPath><clipPath id="a20118debb"><path d="M 55.335938 38.0625 L 176.835938 38.0625 L 176.835938 273.5625 L 55.335938 273.5625 Z M 55.335938 38.0625 "/></clipPath><clipPath id="834817615b"><path d="M 198.324219 38.0625 L 330.324219 38.0625 L 330.324219 273 L 198.324219 273 Z M 198.324219 38.0625 "/></clipPath></defs><g id="38426ab234"><g clip-rule="nonzero" clip-path="url(#6514e59d1f)"><path style=" stroke:none;fill-rule:nonzero;fill:#ffffff;fill-opacity:1;" d="M 183.03125 8.621094 L 192.441406 8.621094 L 192.441406 302.757812 L 183.03125 302.757812 Z M 183.03125 8.621094 "/></g><g clip-rule="nonzero" clip-path="url(#a20118debb)"><path style=" stroke:none;fill-rule:nonzero;fill:#3d5df6;fill-opacity:1;" d="M 242.574219 38.0625 L 205.140625 38.0625 C 202.183594 38.0625 199.792969 40.460938 199.792969 43.410156 L 199.792969 187.800781 L 198.890625 187.800781 L 99.417969 40.320312 C 98.417969 38.902344 96.511719 38.0625 94.773438 38.0625 L 60.753906 38.0625 C 57.796875 38.0625 55.40625 40.460938 55.40625 43.410156 L 55.40625 268.015625 C 55.40625 270.96875 57.796875 273.363281 60.753906 273.363281 L 98.1875 273.363281 C 101.144531 273.363281 103.535156 270.96875 103.535156 268.015625 L 103.535156 123.628906 L 104.4375 123.628906 L 203.910156 271.109375 C 204.910156 272.523438 206.96875 273.363281 208.703125 273.363281 L 242.574219 273.363281 C 245.53125 273.363281 247.921875 270.96875 247.921875 268.015625 L 247.921875 43.410156 C 247.921875 40.460938 245.53125 38.0625 242.574219 38.0625 Z M 242.574219 38.0625 "/></g><g clip-rule="nonzero" clip-path="url(#834817615b)"><path style=" stroke:none;fill-rule:nonzero;fill:#ffffff;fill-opacity:1;" d="M 329.34375 40.320312 C 328.332031 39.039062 326.789062 38.292969 325.160156 38.292969 L 292.289062 38.292969 C 289.820312 38.292969 287.671875 39.988281 287.101562 42.386719 L 255.089844 176.859375 L 254.34375 176.859375 L 218.390625 42.25 C 217.769531 39.914062 215.65625 38.292969 213.242188 38.292969 L 181.269531 38.292969 C 178.855469 38.292969 176.738281 39.914062 176.121094 42.25 L 140.171875 176.859375 L 139.425781 176.859375 L 107.402344 42.386719 C 106.832031 39.988281 104.691406 38.292969 102.222656 38.292969 L 69.351562 38.292969 C 67.722656 38.292969 66.179688 39.039062 65.167969 40.320312 C 64.15625 41.597656 63.789062 43.273438 64.167969 44.855469 L 117.460938 268.6875 C 118.035156 271.089844 120.175781 272.785156 122.644531 272.785156 L 149.105469 272.785156 C 151.519531 272.785156 153.628906 271.164062 154.253906 268.832031 L 197.253906 107.574219 L 240.257812 268.832031 C 240.882812 271.164062 242.992188 272.785156 245.40625 272.785156 L 271.867188 272.785156 C 274.335938 272.785156 276.480469 271.089844 277.050781 268.6875 L 330.34375 44.855469 C 330.722656 43.273438 330.351562 41.597656 329.34375 40.320312 Z M 329.34375 40.320312 "/></g><g style="fill:#ffffff;fill-opacity:1;"><g transform="translate(81.221515, 357.844606)"><path style="stroke:none" d="M 8.1875 0 L 2.625 0 L 2.625 -29.5 L 8.890625 -29.5 L 20.984375 -8.390625 L 20.984375 -29.5 L 26.5625 -29.5 L 26.5625 0 L 20.25 0 L 8.1875 -21.140625 Z M 8.1875 0 "/></g></g><g style="fill:#ffffff;fill-opacity:1;"><g transform="translate(110.40112, 357.844606)"><path style="stroke:none" d="M 12.53125 0.421875 C 10.3125 0.421875 8.367188 -0.0546875 6.703125 -1.015625 C 5.046875 -1.984375 3.757812 -3.304688 2.84375 -4.984375 C 1.925781 -6.660156 1.46875 -8.566406 1.46875 -10.703125 C 1.46875 -12.117188 1.6875 -13.507812 2.125 -14.875 C 2.5625 -16.25 3.226562 -17.484375 4.125 -18.578125 C 5.03125 -19.671875 6.164062 -20.539062 7.53125 -21.1875 C 8.90625 -21.832031 10.519531 -22.15625 12.375 -22.15625 C 13.757812 -22.15625 15.101562 -21.929688 16.40625 -21.484375 C 17.707031 -21.046875 18.875 -20.367188 19.90625 -19.453125 C 20.9375 -18.546875 21.753906 -17.382812 22.359375 -15.96875 C 22.960938 -14.550781 23.265625 -12.863281 23.265625 -10.90625 L 23.265625 -9.78125 L 6.875 -9.78125 C 6.925781 -9.3125 7.03125 -8.851562 7.1875 -8.40625 C 7.34375 -7.957031 7.507812 -7.566406 7.6875 -7.234375 C 8.207031 -6.222656 8.898438 -5.441406 9.765625 -4.890625 C 10.628906 -4.335938 11.613281 -4.0625 12.71875 -4.0625 C 13.957031 -4.0625 14.992188 -4.378906 15.828125 -5.015625 C 16.671875 -5.660156 17.257812 -6.425781 17.59375 -7.3125 L 22.921875 -7.3125 C 22.503906 -5.914062 21.84375 -4.628906 20.9375 -3.453125 C 20.039062 -2.285156 18.894531 -1.347656 17.5 -0.640625 C 16.113281 0.0664062 14.457031 0.421875 12.53125 0.421875 Z M 7.109375 -13.6875 L 17.9375 -13.6875 C 17.90625 -13.96875 17.832031 -14.285156 17.71875 -14.640625 C 17.601562 -15.003906 17.40625 -15.351562 17.125 -15.6875 C 16.632812 -16.46875 15.984375 -17.050781 15.171875 -17.4375 C 14.359375 -17.820312 13.476562 -18.015625 12.53125 -18.015625 C 11.570312 -18.015625 10.695312 -17.820312 9.90625 -17.4375 C 9.125 -17.050781 8.476562 -16.46875 7.96875 -15.6875 C 7.675781 -15.351562 7.472656 -15.003906 7.359375 -14.640625 C 7.242188 -14.285156 7.160156 -13.96875 7.109375 -13.6875 Z M 7.109375 -13.6875 "/></g></g><g style="fill:#ffffff;fill-opacity:1;"><g transform="translate(135.13615, 357.844606)"><path style="stroke:none" d="M 6.453125 0 L 0.5 0 L 7.921875 -10.9375 L 0.46875 -21.6875 L 6.453125 -21.6875 L 11.171875 -14.421875 L 16 -21.6875 L 22.078125 -21.6875 L 14.453125 -10.9375 L 22.03125 0 L 16 0 L 11.203125 -7.390625 Z M 6.453125 0 "/></g></g><g style="fill:#ffffff;fill-opacity:1;"><g transform="translate(157.629568, 357.844606)"><path style="stroke:none" d="M 8.625 0.421875 C 6.582031 0.421875 4.882812 -0.125 3.53125 -1.21875 C 2.175781 -2.3125 1.5 -3.890625 1.5 -5.953125 C 1.5 -7.109375 1.722656 -8.09375 2.171875 -8.90625 C 2.628906 -9.71875 3.234375 -10.382812 3.984375 -10.90625 C 4.679688 -11.394531 5.472656 -11.78125 6.359375 -12.0625 C 7.242188 -12.34375 8.140625 -12.570312 9.046875 -12.75 L 15.5 -13.953125 C 15.445312 -15.296875 15.097656 -16.316406 14.453125 -17.015625 C 13.804688 -17.703125 12.84375 -18.046875 11.5625 -18.046875 C 10.582031 -18.046875 9.710938 -17.753906 8.953125 -17.171875 C 8.191406 -16.597656 7.707031 -15.796875 7.5 -14.765625 L 2.3125 -14.765625 C 2.570312 -16.460938 3.164062 -17.851562 4.09375 -18.9375 C 5.019531 -20.019531 6.144531 -20.828125 7.46875 -21.359375 C 8.800781 -21.890625 10.175781 -22.15625 11.59375 -22.15625 C 12.851562 -22.15625 14.0625 -21.972656 15.21875 -21.609375 C 16.382812 -21.242188 17.367188 -20.691406 18.171875 -19.953125 C 19.015625 -19.203125 19.617188 -18.34375 19.984375 -17.375 C 20.347656 -16.40625 20.5625 -15.398438 20.625 -14.359375 C 20.6875 -13.316406 20.71875 -12.289062 20.71875 -11.28125 L 20.71875 0 L 15.5 0 L 15.5 -2.9375 C 14.957031 -1.976562 14.300781 -1.253906 13.53125 -0.765625 C 12.863281 -0.328125 12.109375 -0.0195312 11.265625 0.15625 C 10.429688 0.332031 9.550781 0.421875 8.625 0.421875 Z M 9.890625 -3.671875 C 10.921875 -3.671875 11.847656 -3.878906 12.671875 -4.296875 C 13.804688 -4.859375 14.570312 -5.613281 14.96875 -6.5625 C 15.375 -7.519531 15.585938 -8.707031 15.609375 -10.125 L 10.4375 -9.078125 C 9.6875 -8.953125 9.070312 -8.785156 8.59375 -8.578125 C 8.125 -8.367188 7.734375 -8.125 7.421875 -7.84375 C 7.210938 -7.632812 7.039062 -7.390625 6.90625 -7.109375 C 6.78125 -6.828125 6.71875 -6.503906 6.71875 -6.140625 C 6.71875 -5.347656 7.019531 -4.738281 7.625 -4.3125 C 8.238281 -3.882812 8.992188 -3.671875 9.890625 -3.671875 Z M 9.890625 -3.671875 "/></g></g><g style="fill:#ffde59;fill-opacity:1;"><g transform="translate(180.479321, 357.844606)"><path style="stroke:none" d=""/></g></g><g style="fill:#5271ff;fill-opacity:1;"><g transform="translate(190.838695, 357.844606)"><path style="stroke:none" d="M 16.625 0 L 8.265625 0 L 0.578125 -29.5 L 6.421875 -29.5 L 12.484375 -5.03125 L 17.96875 -29.5 L 25.046875 -29.5 L 30.53125 -4.984375 L 36.609375 -29.5 L 42.4375 -29.5 L 34.71875 0 L 26.40625 0 L 21.5 -22.84375 Z M 16.625 0 "/></g></g><g style="fill:#5271ff;fill-opacity:1;"><g transform="translate(233.815812, 357.844606)"><path style="stroke:none" d="M 12.53125 0.421875 C 10.3125 0.421875 8.367188 -0.0546875 6.703125 -1.015625 C 5.046875 -1.984375 3.757812 -3.304688 2.84375 -4.984375 C 1.925781 -6.660156 1.46875 -8.566406 1.46875 -10.703125 C 1.46875 -12.117188 1.6875 -13.507812 2.125 -14.875 C 2.5625 -16.25 3.226562 -17.484375 4.125 -18.578125 C 5.03125 -19.671875 6.164062 -20.539062 7.53125 -21.1875 C 8.90625 -21.832031 10.519531 -22.15625 12.375 -22.15625 C 13.757812 -22.15625 15.101562 -21.929688 16.40625 -21.484375 C 17.707031 -21.046875 18.875 -20.367188 19.90625 -19.453125 C 20.9375 -18.546875 21.753906 -17.382812 22.359375 -15.96875 C 22.960938 -14.550781 23.265625 -12.863281 23.265625 -10.90625 L 23.265625 -9.78125 L 6.875 -9.78125 C 6.925781 -9.3125 7.03125 -8.851562 7.1875 -8.40625 C 7.34375 -7.957031 7.507812 -7.566406 7.6875 -7.234375 C 8.207031 -6.222656 8.898438 -5.441406 9.765625 -4.890625 C 10.628906 -4.335938 11.613281 -4.0625 12.71875 -4.0625 C 13.957031 -4.0625 14.992188 -4.378906 15.828125 -5.015625 C 16.671875 -5.660156 17.257812 -6.425781 17.59375 -7.3125 L 22.921875 -7.3125 C 22.503906 -5.914062 21.84375 -4.628906 20.9375 -3.453125 C 20.039062 -2.285156 18.894531 -1.347656 17.5 -0.640625 C 16.113281 0.0664062 14.457031 0.421875 12.53125 0.421875 Z M 7.109375 -13.6875 L 17.9375 -13.6875 C 17.90625 -13.96875 17.832031 -14.285156 17.71875 -14.640625 C 17.601562 -15.003906 17.40625 -15.351562 17.125 -15.6875 C 16.632812 -16.46875 15.984375 -17.050781 15.171875 -17.4375 C 14.359375 -17.820312 13.476562 -18.015625 12.53125 -18.015625 C 11.570312 -18.015625 10.695312 -17.820312 9.90625 -17.4375 C 9.125 -17.050781 8.476562 -16.46875 7.96875 -15.6875 C 7.675781 -15.351562 7.472656 -15.003906 7.359375 -14.640625 C 7.242188 -14.285156 7.160156 -13.96875 7.109375 -13.6875 Z M 7.109375 -13.6875 "/></g></g><g style="fill:#5271ff;fill-opacity:1;"><g transform="translate(258.550841, 357.844606)"><path style="stroke:none" d="M 13.765625 0.421875 C 12.503906 0.421875 11.378906 0.195312 10.390625 -0.25 C 9.410156 -0.695312 8.484375 -1.53125 7.609375 -2.75 L 7.609375 0 L 2.390625 0 L 2.390625 -29.5 L 7.609375 -29.5 L 7.609375 -18.9375 C 8.484375 -20.175781 9.410156 -21.019531 10.390625 -21.46875 C 11.378906 -21.925781 12.503906 -22.15625 13.765625 -22.15625 C 15.671875 -22.15625 17.335938 -21.675781 18.765625 -20.71875 C 20.191406 -19.769531 21.304688 -18.441406 22.109375 -16.734375 C 22.910156 -15.035156 23.3125 -13.078125 23.3125 -10.859375 C 23.3125 -8.640625 22.910156 -6.679688 22.109375 -4.984375 C 21.304688 -3.285156 20.191406 -1.957031 18.765625 -1 C 17.335938 -0.0507812 15.671875 0.421875 13.765625 0.421875 Z M 12.5625 -4.0625 C 14.238281 -4.0625 15.570312 -4.703125 16.5625 -5.984375 C 17.550781 -7.273438 18.046875 -8.898438 18.046875 -10.859375 C 18.046875 -12.847656 17.550781 -14.476562 16.5625 -15.75 C 15.570312 -17.03125 14.238281 -17.671875 12.5625 -17.671875 C 10.914062 -17.671875 9.566406 -17.035156 8.515625 -15.765625 C 7.472656 -14.503906 6.953125 -12.867188 6.953125 -10.859375 C 6.953125 -8.847656 7.472656 -7.210938 8.515625 -5.953125 C 9.566406 -4.691406 10.914062 -4.0625 12.5625 -4.0625 Z M 12.5625 -4.0625 "/></g></g><g style="fill:#5271ff;fill-opacity:1;"><g transform="translate(283.405099, 357.844606)"><path style="stroke:none" d=""/></g></g></g></svg>