<svg xmlns="http://www.w3.org/2000/svg" xmlns:xlink="http://www.w3.org/1999/xlink" width="500" zoomAndPan="magnify" viewBox="0 0 375 374.999991" height="500" preserveAspectRatio="xMidYMid meet" version="1.2"><defs><clipPath id="0b7fbde99e"><path d="M 186.304688 165.085938 L 359.769531 165.085938 L 359.769531 212.9375 L 186.304688 212.9375 Z M 186.304688 165.085938 "/></clipPath><clipPath id="ff65afc347"><path d="M 198.300781 165.085938 L 359.683594 165.085938 L 347.6875 212.9375 L 186.304688 212.9375 Z M 198.300781 165.085938 "/></clipPath><clipPath id="1f93f98579"><path d="M 15.316406 203.421875 L 103.726562 203.421875 L 103.726562 212.9375 L 15.316406 212.9375 Z M 15.316406 203.421875 "/></clipPath></defs><g id="1a50ce81b1"><g style="fill:#000000;fill-opacity:1;"><g transform="translate(19.842641, 196.470191)"><path style="stroke:none" d="M -2.21875 0 L 5.09375 -31.78125 L 17.828125 -31.78125 L 16.421875 -25.640625 L 10.171875 -25.640625 L 8.71875 -19.46875 L 14.71875 -19.46875 L 13.34375 -13.46875 L 7.359375 -13.46875 L 5.65625 -6.171875 L 12.3125 -6.171875 L 10.90625 0 Z M -2.21875 0 "/></g></g><g style="fill:#000000;fill-opacity:1;"><g transform="translate(36.010006, 196.470191)"><path style="stroke:none" d="M 0.671875 0 L 4.0625 -31.8125 L 10.140625 -31.8125 L 7.46875 -10.171875 L 14.546875 -31.8125 L 20.609375 -31.8125 L 9.359375 0 Z M 0.671875 0 "/></g></g><g style="fill:#000000;fill-opacity:1;"><g transform="translate(54.286151, 196.470191)"><path style="stroke:none" d="M -2.21875 0 L 5.09375 -31.78125 L 17.828125 -31.78125 L 16.421875 -25.640625 L 10.171875 -25.640625 L 8.71875 -19.46875 L 14.71875 -19.46875 L 13.34375 -13.46875 L 7.359375 -13.46875 L 5.65625 -6.171875 L 12.3125 -6.171875 L 10.90625 0 Z M -2.21875 0 "/></g></g><g style="fill:#000000;fill-opacity:1;"><g transform="translate(70.453516, 196.470191)"><path style="stroke:none" d="M 5.09375 -31.78125 L 14.875 -31.78125 C 16.425781 -31.78125 17.546875 -31.425781 18.234375 -30.71875 C 18.921875 -30.019531 19.265625 -29.035156 19.265625 -27.765625 C 19.265625 -26.492188 19.046875 -24.875 18.609375 -22.90625 C 18.179688 -21.101562 17.617188 -19.695312 16.921875 -18.6875 C 16.222656 -17.675781 15.242188 -16.972656 13.984375 -16.578125 C 14.890625 -16.378906 15.472656 -15.894531 15.734375 -15.125 C 15.992188 -14.363281 15.976562 -13.332031 15.6875 -12.03125 L 12.828125 0 L 6.625 0 L 9.46875 -12.4375 C 9.6875 -13.320312 9.644531 -13.882812 9.34375 -14.125 C 9.050781 -14.375 8.453125 -14.5 7.546875 -14.5 L 4.21875 0 L -2.21875 0 Z M 10.390625 -20.015625 C 11.273438 -20.015625 11.941406 -20.976562 12.390625 -22.90625 C 12.585938 -23.738281 12.691406 -24.363281 12.703125 -24.78125 C 12.710938 -25.207031 12.632812 -25.5 12.46875 -25.65625 C 12.3125 -25.820312 12.050781 -25.90625 11.6875 -25.90625 L 10.203125 -25.90625 L 8.875 -20.015625 Z M 10.390625 -20.015625 "/></g></g><g style="fill:#000000;fill-opacity:1;"><g transform="translate(89.025628, 196.470191)"><path style="stroke:none" d="M 1.59375 0 L 4 -10.46875 L 3.84375 -31.78125 L 10.140625 -31.78125 L 9.4375 -21.015625 L 13.6875 -31.78125 L 19.984375 -31.78125 L 9.984375 -10.46875 L 7.578125 0 Z M 1.59375 0 "/></g></g><g style="fill:#000000;fill-opacity:1;"><g transform="translate(106.450859, 196.470191)"><path style="stroke:none" d="M 0.484375 0 L 6.40625 -25.671875 L 2.625 -25.671875 L 4.03125 -31.78125 L 17.9375 -31.78125 L 16.53125 -25.671875 L 12.765625 -25.671875 L 6.84375 0 Z M 0.484375 0 "/></g></g><g style="fill:#000000;fill-opacity:1;"><g transform="translate(122.026289, 196.470191)"><path style="stroke:none" d="M -2.21875 0 L 5.09375 -31.78125 L 11.421875 -31.78125 L 8.796875 -20.421875 L 11.796875 -20.421875 L 14.421875 -31.78125 L 20.75 -31.78125 L 13.421875 0 L 7.09375 0 L 10.421875 -14.4375 L 7.4375 -14.4375 L 4.09375 0 Z M -2.21875 0 "/></g></g><g style="fill:#000000;fill-opacity:1;"><g transform="translate(141.412316, 196.470191)"><path style="stroke:none" d="M -2.515625 0 L 4.796875 -31.78125 L 10.953125 -31.78125 L 3.625 0 Z M -2.515625 0 "/></g></g><g style="fill:#000000;fill-opacity:1;"><g transform="translate(150.735417, 196.470191)"><path style="stroke:none" d="M -2.21875 0 L 5.09375 -31.78125 L 11.65625 -31.78125 L 11.0625 -16.578125 L 14.578125 -31.78125 L 20.71875 -31.78125 L 13.390625 0 L 7.171875 0 L 7.65625 -15.90625 L 3.984375 0 Z M -2.21875 0 "/></g></g><g style="fill:#000000;fill-opacity:1;"><g transform="translate(170.084445, 196.470191)"><path style="stroke:none" d="M 4.25 0.296875 C 1.957031 0.296875 0.4375 -0.507812 -0.3125 -2.125 C -1.070312 -3.738281 -1.066406 -6.1875 -0.296875 -9.46875 L 2.84375 -23.15625 C 3.53125 -26.09375 4.703125 -28.3125 6.359375 -29.8125 C 8.015625 -31.320312 10.132812 -32.078125 12.71875 -32.078125 C 14.820312 -32.078125 16.351562 -31.65625 17.3125 -30.8125 C 18.269531 -29.976562 18.785156 -28.757812 18.859375 -27.15625 C 18.929688 -25.550781 18.6875 -23.492188 18.125 -20.984375 L 11.90625 -20.984375 L 12.578125 -23.828125 C 12.742188 -24.585938 12.769531 -25.175781 12.65625 -25.59375 C 12.550781 -26.019531 12.226562 -26.234375 11.6875 -26.234375 C 10.476562 -26.234375 9.6875 -25.441406 9.3125 -23.859375 L 5.765625 -8.46875 C 5.546875 -7.507812 5.492188 -6.78125 5.609375 -6.28125 C 5.734375 -5.789062 6.109375 -5.546875 6.734375 -5.546875 C 7.347656 -5.546875 7.835938 -5.789062 8.203125 -6.28125 C 8.578125 -6.78125 8.875 -7.507812 9.09375 -8.46875 L 10.125 -13.03125 L 8.4375 -13.03125 L 9.6875 -18.5 L 17.453125 -18.5 L 13.203125 0 L 10.65625 0 L 10.171875 -2.65625 C 8.585938 -0.6875 6.613281 0.296875 4.25 0.296875 Z M 4.25 0.296875 "/></g></g><g style="fill:#000000;fill-opacity:1;"><g transform="translate(108.118137, 211.929785)"><path style="stroke:none" d="M 2.96875 0.109375 C 2.375 0.109375 1.804688 0.0234375 1.265625 -0.140625 C 0.722656 -0.304688 0.296875 -0.523438 -0.015625 -0.796875 L 0.59375 -1.90625 C 0.914062 -1.65625 1.296875 -1.453125 1.734375 -1.296875 C 2.179688 -1.148438 2.640625 -1.078125 3.109375 -1.078125 C 3.671875 -1.078125 4.117188 -1.171875 4.453125 -1.359375 C 4.785156 -1.554688 4.953125 -1.828125 4.953125 -2.171875 C 4.953125 -2.359375 4.882812 -2.515625 4.75 -2.640625 C 4.613281 -2.773438 4.441406 -2.878906 4.234375 -2.953125 C 4.035156 -3.035156 3.757812 -3.128906 3.40625 -3.234375 C 2.90625 -3.378906 2.5 -3.519531 2.1875 -3.65625 C 1.882812 -3.789062 1.617188 -3.992188 1.390625 -4.265625 C 1.171875 -4.535156 1.0625 -4.890625 1.0625 -5.328125 C 1.0625 -5.828125 1.203125 -6.257812 1.484375 -6.625 C 1.765625 -7 2.160156 -7.289062 2.671875 -7.5 C 3.179688 -7.707031 3.765625 -7.8125 4.421875 -7.8125 C 4.921875 -7.8125 5.394531 -7.753906 5.84375 -7.640625 C 6.289062 -7.523438 6.675781 -7.363281 7 -7.15625 L 6.4375 -6.03125 C 6.144531 -6.21875 5.816406 -6.363281 5.453125 -6.46875 C 5.097656 -6.570312 4.726562 -6.625 4.34375 -6.625 C 3.769531 -6.625 3.316406 -6.519531 2.984375 -6.3125 C 2.648438 -6.101562 2.484375 -5.828125 2.484375 -5.484375 C 2.484375 -5.285156 2.550781 -5.117188 2.6875 -4.984375 C 2.832031 -4.847656 3.003906 -4.738281 3.203125 -4.65625 C 3.398438 -4.582031 3.6875 -4.488281 4.0625 -4.375 C 4.550781 -4.238281 4.945312 -4.101562 5.25 -3.96875 C 5.5625 -3.832031 5.828125 -3.632812 6.046875 -3.375 C 6.265625 -3.125 6.375 -2.796875 6.375 -2.390625 C 6.375 -1.878906 6.226562 -1.4375 5.9375 -1.0625 C 5.65625 -0.6875 5.253906 -0.394531 4.734375 -0.1875 C 4.222656 0.0078125 3.632812 0.109375 2.96875 0.109375 Z M 2.96875 0.109375 "/></g></g><g style="fill:#000000;fill-opacity:1;"><g transform="translate(119.432281, 211.929785)"><path style="stroke:none" d="M 4.28125 -2.625 L 3.75 0 L 2.328125 0 L 2.875 -2.734375 L 0.859375 -7.703125 L 2.28125 -7.703125 L 3.796875 -3.9375 L 6.828125 -7.703125 L 8.328125 -7.703125 Z M 4.28125 -2.625 "/></g></g><g style="fill:#000000;fill-opacity:1;"><g transform="translate(131.098181, 211.929785)"><path style="stroke:none" d="M 1.984375 -7.703125 L 5.109375 -7.703125 C 5.878906 -7.703125 6.546875 -7.570312 7.109375 -7.3125 C 7.671875 -7.050781 8.097656 -6.679688 8.390625 -6.203125 C 8.691406 -5.722656 8.84375 -5.160156 8.84375 -4.515625 C 8.84375 -3.617188 8.640625 -2.828125 8.234375 -2.140625 C 7.835938 -1.460938 7.273438 -0.9375 6.546875 -0.5625 C 5.828125 -0.1875 4.992188 0 4.046875 0 L 0.453125 0 Z M 4.09375 -1.203125 C 4.769531 -1.203125 5.351562 -1.34375 5.84375 -1.625 C 6.34375 -1.90625 6.726562 -2.289062 7 -2.78125 C 7.269531 -3.269531 7.40625 -3.820312 7.40625 -4.4375 C 7.40625 -5.082031 7.195312 -5.582031 6.78125 -5.9375 C 6.363281 -6.300781 5.753906 -6.484375 4.953125 -6.484375 L 3.171875 -6.484375 L 2.125 -1.203125 Z M 4.09375 -1.203125 "/></g></g><g style="fill:#000000;fill-opacity:1;"><g transform="translate(144.577798, 211.929785)"><path style="stroke:none" d="M 8.828125 -7.703125 L 7.28125 0 L 6.109375 0 L 2.953125 -5.390625 L 1.875 0 L 0.453125 0 L 1.984375 -7.703125 L 3.171875 -7.703125 L 6.34375 -2.3125 L 7.40625 -7.703125 Z M 8.828125 -7.703125 "/></g></g><g style="fill:#000000;fill-opacity:1;"><g transform="translate(157.881543, 211.929785)"><path style="stroke:none" d="M 3.171875 -6.5 L 2.765625 -4.5 L 6.5 -4.5 L 6.265625 -3.328125 L 2.53125 -3.328125 L 2.109375 -1.203125 L 6.46875 -1.203125 L 6.21875 0 L 0.453125 0 L 1.984375 -7.703125 L 7.609375 -7.703125 L 7.375 -6.5 Z M 3.171875 -6.5 "/></g></g><g style="fill:#000000;fill-opacity:1;"><g transform="translate(169.646366, 211.929785)"><path style="stroke:none" d="M 4.28125 -2.625 L 3.75 0 L 2.328125 0 L 2.875 -2.734375 L 0.859375 -7.703125 L 2.28125 -7.703125 L 3.796875 -3.9375 L 6.828125 -7.703125 L 8.328125 -7.703125 Z M 4.28125 -2.625 "/></g></g><g clip-rule="nonzero" clip-path="url(#0b7fbde99e)"><g clip-rule="nonzero" clip-path="url(#ff65afc347)"><path style=" stroke:none;fill-rule:nonzero;fill:#ff1616;fill-opacity:1;" d="M 186.304688 165.085938 L 359.769531 165.085938 L 359.769531 212.9375 L 186.304688 212.9375 Z M 186.304688 165.085938 "/></g></g><g style="fill:#ffffff;fill-opacity:1;"><g transform="translate(197.952194, 202.212995)"><path style="stroke:none" d="M -2.109375 0 L 4.828125 -30.0625 L 16.859375 -30.0625 L 15.53125 -24.25 L 9.625 -24.25 L 8.25 -18.40625 L 13.921875 -18.40625 L 12.625 -12.734375 L 6.96875 -12.734375 L 5.34375 -5.84375 L 11.65625 -5.84375 L 10.328125 0 Z M -2.109375 0 "/></g></g><g style="fill:#ffffff;fill-opacity:1;"><g transform="translate(213.068934, 202.212995)"><path style="stroke:none" d="M -2.109375 0 L 4.828125 -30.0625 L 10.84375 -30.0625 L 5.109375 -5.109375 L 11.296875 -5.109375 L 10.109375 0 Z M -2.109375 0 "/></g></g><g style="fill:#ffffff;fill-opacity:1;"><g transform="translate(227.660803, 202.212995)"><path style="stroke:none" d="M -2.109375 0 L 4.828125 -30.0625 L 16.859375 -30.0625 L 15.53125 -24.25 L 9.625 -24.25 L 8.25 -18.40625 L 13.921875 -18.40625 L 12.625 -12.734375 L 6.96875 -12.734375 L 5.34375 -5.84375 L 11.65625 -5.84375 L 10.328125 0 Z M -2.109375 0 "/></g></g><g style="fill:#ffffff;fill-opacity:1;"><g transform="translate(242.777543, 202.212995)"><path style="stroke:none" d="M 4.828125 0.28125 C 2.628906 0.28125 1.03125 -0.40625 0.03125 -1.78125 C -0.96875 -3.15625 -1.191406 -5.046875 -0.640625 -7.453125 L 2.546875 -21.3125 C 3.242188 -24.300781 4.363281 -26.550781 5.90625 -28.0625 C 7.445312 -29.582031 9.488281 -30.34375 12.03125 -30.34375 C 14.25 -30.34375 15.894531 -29.734375 16.96875 -28.515625 C 18.039062 -27.304688 18.3125 -25.5625 17.78125 -23.28125 L 16.59375 -18.09375 L 10.59375 -18.09375 L 11.65625 -22.546875 C 11.84375 -23.398438 11.867188 -23.988281 11.734375 -24.3125 C 11.609375 -24.644531 11.289062 -24.8125 10.78125 -24.8125 C 10.238281 -24.8125 9.820312 -24.625 9.53125 -24.25 C 9.238281 -23.875 9.007812 -23.328125 8.84375 -22.609375 L 5.34375 -7.53125 C 5.1875 -6.726562 5.175781 -6.144531 5.3125 -5.78125 C 5.457031 -5.425781 5.757812 -5.25 6.21875 -5.25 C 7.15625 -5.25 7.800781 -6.007812 8.15625 -7.53125 L 9.40625 -12.953125 L 15.46875 -12.953125 L 14.171875 -7.28125 C 13.003906 -2.238281 9.890625 0.28125 4.828125 0.28125 Z M 4.828125 0.28125 "/></g></g><g style="fill:#ffffff;fill-opacity:1;"><g transform="translate(260.063797, 202.212995)"><path style="stroke:none" d="M 0.453125 0 L 6.0625 -24.296875 L 2.484375 -24.296875 L 3.8125 -30.0625 L 16.96875 -30.0625 L 15.640625 -24.296875 L 12.078125 -24.296875 L 6.46875 0 Z M 0.453125 0 "/></g></g><g style="fill:#ffffff;fill-opacity:1;"><g transform="translate(274.620669, 202.212995)"><path style="stroke:none" d="M 4.828125 -30.0625 L 14.0625 -30.0625 C 15.53125 -30.0625 16.59375 -29.726562 17.25 -29.0625 C 17.90625 -28.394531 18.234375 -27.460938 18.234375 -26.265625 C 18.234375 -25.066406 18.019531 -23.535156 17.59375 -21.671875 C 17.195312 -19.960938 16.664062 -18.628906 16 -17.671875 C 15.34375 -16.710938 14.414062 -16.050781 13.21875 -15.6875 C 14.082031 -15.5 14.632812 -15.039062 14.875 -14.3125 C 15.125 -13.59375 15.113281 -12.613281 14.84375 -11.375 L 12.140625 0 L 6.265625 0 L 8.953125 -11.765625 C 9.160156 -12.597656 9.125 -13.128906 8.84375 -13.359375 C 8.570312 -13.597656 8.003906 -13.71875 7.140625 -13.71875 L 3.984375 0 L -2.109375 0 Z M 9.828125 -18.9375 C 10.671875 -18.9375 11.300781 -19.847656 11.71875 -21.671875 C 11.90625 -22.460938 12.003906 -23.054688 12.015625 -23.453125 C 12.023438 -23.847656 11.953125 -24.117188 11.796875 -24.265625 C 11.648438 -24.421875 11.40625 -24.5 11.0625 -24.5 L 9.65625 -24.5 L 8.390625 -18.9375 Z M 9.828125 -18.9375 "/></g></g><g style="fill:#ffffff;fill-opacity:1;"><g transform="translate(292.0119, 202.212995)"><path style="stroke:none" d="M -2.390625 0 L 4.546875 -30.0625 L 10.359375 -30.0625 L 3.421875 0 Z M -2.390625 0 "/></g></g><g style="fill:#ffffff;fill-opacity:1;"><g transform="translate(300.655107, 202.212995)"><path style="stroke:none" d="M 4.828125 0.28125 C 2.628906 0.28125 1.03125 -0.40625 0.03125 -1.78125 C -0.96875 -3.15625 -1.191406 -5.046875 -0.640625 -7.453125 L 2.546875 -21.3125 C 3.242188 -24.300781 4.363281 -26.550781 5.90625 -28.0625 C 7.445312 -29.582031 9.488281 -30.34375 12.03125 -30.34375 C 14.25 -30.34375 15.894531 -29.734375 16.96875 -28.515625 C 18.039062 -27.304688 18.3125 -25.5625 17.78125 -23.28125 L 16.59375 -18.09375 L 10.59375 -18.09375 L 11.65625 -22.546875 C 11.84375 -23.398438 11.867188 -23.988281 11.734375 -24.3125 C 11.609375 -24.644531 11.289062 -24.8125 10.78125 -24.8125 C 10.238281 -24.8125 9.820312 -24.625 9.53125 -24.25 C 9.238281 -23.875 9.007812 -23.328125 8.84375 -22.609375 L 5.34375 -7.53125 C 5.1875 -6.726562 5.175781 -6.144531 5.3125 -5.78125 C 5.457031 -5.425781 5.757812 -5.25 6.21875 -5.25 C 7.15625 -5.25 7.800781 -6.007812 8.15625 -7.53125 L 9.40625 -12.953125 L 15.46875 -12.953125 L 14.171875 -7.28125 C 13.003906 -2.238281 9.890625 0.28125 4.828125 0.28125 Z M 4.828125 0.28125 "/></g></g><g style="fill:#ffffff;fill-opacity:1;"><g transform="translate(317.94136, 202.212995)"><path style="stroke:none" d="M -2.90625 0 L 6.921875 -30.0625 L 17.109375 -30.0625 L 13.046875 0 L 7.34375 0 L 8.046875 -4.859375 L 4.40625 -4.859375 L 2.9375 0 Z M 5.984375 -9.65625 L 8.71875 -9.65625 L 10.875 -24.953125 L 10.59375 -24.953125 Z M 5.984375 -9.65625 "/></g></g><g style="fill:#ffffff;fill-opacity:1;"><g transform="translate(335.612525, 202.212995)"><path style="stroke:none" d="M -2.109375 0 L 4.828125 -30.0625 L 10.84375 -30.0625 L 5.109375 -5.109375 L 11.296875 -5.109375 L 10.109375 0 Z M -2.109375 0 "/></g></g><g clip-rule="nonzero" clip-path="url(#1f93f98579)"><path style=" stroke:none;fill-rule:nonzero;fill:#ff1616;fill-opacity:1;" d="M 15.316406 203.421875 L 103.742188 203.421875 L 103.742188 212.9375 L 15.316406 212.9375 Z M 15.316406 203.421875 "/></g></g></svg>