<svg xmlns="http://www.w3.org/2000/svg" xmlns:xlink="http://www.w3.org/1999/xlink" width="500" zoomAndPan="magnify" viewBox="0 0 375 374.999991" height="500" preserveAspectRatio="xMidYMid meet" version="1.2"><defs><clipPath id="eba3b685a0"><path d="M 66.296875 215.03125 L 131.394531 215.03125 L 131.394531 221.453125 L 66.296875 221.453125 Z M 66.296875 215.03125 "/></clipPath><clipPath id="60417d792d"><path d="M 66 165 L 74 165 L 74 219 L 66 219 Z M 66 165 "/></clipPath><clipPath id="b3993c59b2"><path d="M 66.292969 218.199219 L 66.589844 165.664062 L 73.003906 165.699219 L 72.710938 218.234375 Z M 66.292969 218.199219 "/></clipPath><clipPath id="6b06376aa4"><path d="M 223.292969 151.175781 L 288.390625 151.175781 L 288.390625 157.597656 L 223.292969 157.597656 Z M 223.292969 151.175781 "/></clipPath><clipPath id="7986776de5"><path d="M 281 154 L 289 154 L 289 207 L 281 207 Z M 281 154 "/></clipPath><clipPath id="eaff72ca13"><path d="M 288.394531 154.429688 L 288.097656 206.964844 L 281.683594 206.929688 L 281.976562 154.394531 Z M 288.394531 154.429688 "/></clipPath></defs><g id="bbed2c8edd"><g style="fill:#f49516;fill-opacity:1;"><g transform="translate(78.43048, 198.516316)"><path style="stroke:none" d="M 9.359375 -12.546875 L 9.359375 -4.734375 L 22.984375 -4.734375 L 22.984375 0 L 3.71875 0 L 3.71875 -28.5625 L 22.671875 -28.5625 L 22.671875 -23.828125 L 9.359375 -23.828125 L 9.359375 -17.15625 L 21 -17.15625 L 21 -12.546875 Z M 9.359375 -12.546875 "/></g></g><g style="fill:#f49516;fill-opacity:1;"><g transform="translate(101.098878, 198.516316)"><path style="stroke:none" d="M 14.828125 0 L 8.375 0 L 0.40625 -21.546875 L 6.078125 -21.546875 L 11.421875 -6.1875 L 11.875 -6.1875 L 17.25 -21.546875 L 22.78125 -21.546875 Z M 14.828125 0 "/></g></g><g style="fill:#f49516;fill-opacity:1;"><g transform="translate(122.380688, 198.516316)"><path style="stroke:none" d="M 21.296875 -9.546875 L 7.4375 -9.546875 C 7.59375 -7.671875 8.125 -6.304688 9.03125 -5.453125 C 9.945312 -4.609375 11.195312 -4.1875 12.78125 -4.1875 C 14.007812 -4.1875 15.007812 -4.414062 15.78125 -4.875 C 16.550781 -5.332031 17.171875 -6.03125 17.640625 -6.96875 L 18.046875 -6.96875 L 21.640625 -4.671875 C 20.941406 -3.160156 19.878906 -1.9375 18.453125 -1 C 17.035156 -0.0625 15.144531 0.40625 12.78125 0.40625 C 10.550781 0.40625 8.625 -0.015625 7 -0.859375 C 5.382812 -1.703125 4.132812 -2.960938 3.25 -4.640625 C 2.375 -6.316406 1.9375 -8.359375 1.9375 -10.765625 C 1.9375 -13.210938 2.394531 -15.273438 3.3125 -16.953125 C 4.238281 -18.628906 5.488281 -19.878906 7.0625 -20.703125 C 8.644531 -21.535156 10.421875 -21.953125 12.390625 -21.953125 C 15.429688 -21.953125 17.757812 -21.144531 19.375 -19.53125 C 21 -17.914062 21.8125 -15.546875 21.8125 -12.421875 C 21.8125 -11.285156 21.773438 -10.40625 21.703125 -9.78125 Z M 16.640625 -13.046875 C 16.585938 -14.691406 16.207031 -15.882812 15.5 -16.625 C 14.789062 -17.375 13.753906 -17.75 12.390625 -17.75 C 9.648438 -17.75 8.039062 -16.179688 7.5625 -13.046875 Z M 16.640625 -13.046875 "/></g></g><g style="fill:#f49516;fill-opacity:1;"><g transform="translate(143.916385, 198.516316)"><path style="stroke:none" d="M 3.109375 0 L 3.109375 -21.546875 L 8.359375 -21.546875 L 8.359375 -18.34375 L 8.765625 -18.265625 C 9.285156 -19.460938 9.96875 -20.335938 10.8125 -20.890625 C 11.664062 -21.453125 12.695312 -21.734375 13.90625 -21.734375 C 15.132812 -21.734375 16.066406 -21.523438 16.703125 -21.109375 L 15.78125 -16.453125 L 15.375 -16.375 C 15.019531 -16.507812 14.679688 -16.609375 14.359375 -16.671875 C 14.035156 -16.742188 13.640625 -16.78125 13.171875 -16.78125 C 11.660156 -16.78125 10.503906 -16.25 9.703125 -15.1875 C 8.910156 -14.125 8.515625 -12.421875 8.515625 -10.078125 L 8.515625 0 Z M 3.109375 0 "/></g></g><g style="fill:#f49516;fill-opacity:1;"><g transform="translate(158.929281, 198.516316)"><path style="stroke:none" d="M 4.765625 9.140625 C 3.835938 9.140625 3 9.066406 2.25 8.921875 C 1.507812 8.785156 0.90625 8.597656 0.4375 8.359375 L 1.296875 3.984375 L 1.640625 3.875 C 1.960938 4.039062 2.363281 4.175781 2.84375 4.28125 C 3.332031 4.382812 3.832031 4.4375 4.34375 4.4375 C 5.207031 4.4375 5.929688 4.320312 6.515625 4.09375 C 7.097656 3.863281 7.585938 3.484375 7.984375 2.953125 C 8.390625 2.429688 8.75 1.703125 9.0625 0.765625 L 0.46875 -21.546875 L 6.140625 -21.546875 L 11.484375 -6.5625 L 11.953125 -6.5625 L 17.171875 -21.546875 L 22.671875 -21.546875 L 14.03125 1.34375 C 13.332031 3.195312 12.570312 4.6875 11.75 5.8125 C 10.925781 6.9375 9.945312 7.769531 8.8125 8.3125 C 7.6875 8.863281 6.335938 9.140625 4.765625 9.140625 Z M 4.765625 9.140625 "/></g></g><g style="fill:#f49516;fill-opacity:1;"><g transform="translate(180.172032, 198.516316)"><path style="stroke:none" d="M 14.859375 -5.140625 L 16.265625 -1.140625 C 15.679688 -0.648438 14.945312 -0.269531 14.0625 0 C 13.175781 0.269531 12.175781 0.40625 11.0625 0.40625 C 8.726562 0.40625 6.953125 -0.226562 5.734375 -1.5 C 4.523438 -2.769531 3.921875 -4.613281 3.921875 -7.03125 L 3.921875 -17.265625 L 0.640625 -17.265625 L 0.640625 -21.5625 L 3.921875 -21.5625 L 3.921875 -25.765625 L 9.34375 -26.640625 L 9.34375 -21.5625 L 15.453125 -21.5625 L 15.453125 -17.265625 L 9.34375 -17.265625 L 9.34375 -7.421875 C 9.34375 -6.359375 9.5625 -5.582031 10 -5.09375 C 10.445312 -4.601562 11.09375 -4.359375 11.9375 -4.359375 C 12.894531 -4.359375 13.734375 -4.617188 14.453125 -5.140625 Z M 14.859375 -5.140625 "/></g></g><g style="fill:#f49516;fill-opacity:1;"><g transform="translate(195.028694, 198.516316)"><path style="stroke:none" d="M 3.109375 0 L 3.109375 -30.203125 L 8.515625 -30.203125 L 8.515625 -18.734375 L 8.921875 -18.65625 C 9.640625 -19.707031 10.519531 -20.519531 11.5625 -21.09375 C 12.601562 -21.664062 13.859375 -21.953125 15.328125 -21.953125 C 20.085938 -21.953125 22.46875 -19.257812 22.46875 -13.875 L 22.46875 0 L 17.046875 0 L 17.046875 -13.1875 C 17.046875 -14.65625 16.753906 -15.722656 16.171875 -16.390625 C 15.585938 -17.054688 14.675781 -17.390625 13.4375 -17.390625 C 11.925781 -17.390625 10.726562 -16.882812 9.84375 -15.875 C 8.957031 -14.863281 8.515625 -13.289062 8.515625 -11.15625 L 8.515625 0 Z M 3.109375 0 "/></g></g><g style="fill:#f49516;fill-opacity:1;"><g transform="translate(218.380613, 198.516316)"><path style="stroke:none" d="M 5.796875 -24.125 C 4.828125 -24.125 4.035156 -24.421875 3.421875 -25.015625 C 2.804688 -25.609375 2.5 -26.375 2.5 -27.3125 C 2.5 -28.226562 2.804688 -28.984375 3.421875 -29.578125 C 4.035156 -30.171875 4.828125 -30.46875 5.796875 -30.46875 C 6.453125 -30.46875 7.03125 -30.332031 7.53125 -30.0625 C 8.039062 -29.789062 8.4375 -29.414062 8.71875 -28.9375 C 9 -28.457031 9.140625 -27.914062 9.140625 -27.3125 C 9.140625 -26.695312 9 -26.144531 8.71875 -25.65625 C 8.4375 -25.175781 8.039062 -24.800781 7.53125 -24.53125 C 7.03125 -24.257812 6.453125 -24.125 5.796875 -24.125 Z M 3.109375 0 L 3.109375 -21.546875 L 8.515625 -21.546875 L 8.515625 0 Z M 3.109375 0 "/></g></g><g style="fill:#f49516;fill-opacity:1;"><g transform="translate(228.101053, 198.516316)"><path style="stroke:none" d="M 3.109375 0 L 3.109375 -21.546875 L 8.296875 -21.546875 L 8.296875 -18.375 L 8.71875 -18.28125 C 10.050781 -20.726562 12.222656 -21.953125 15.234375 -21.953125 C 17.722656 -21.953125 19.550781 -21.273438 20.71875 -19.921875 C 21.882812 -18.566406 22.46875 -16.59375 22.46875 -14 L 22.46875 0 L 17.046875 0 L 17.046875 -13.34375 C 17.046875 -14.769531 16.757812 -15.800781 16.1875 -16.4375 C 15.613281 -17.070312 14.695312 -17.390625 13.4375 -17.390625 C 11.882812 -17.390625 10.675781 -16.882812 9.8125 -15.875 C 8.945312 -14.875 8.515625 -13.300781 8.515625 -11.15625 L 8.515625 0 Z M 3.109375 0 "/></g></g><g style="fill:#f49516;fill-opacity:1;"><g transform="translate(251.452972, 198.516316)"><path style="stroke:none" d="M 11.171875 9.140625 C 7.617188 9.140625 4.992188 8.617188 3.296875 7.578125 C 1.609375 6.535156 0.765625 5.082031 0.765625 3.21875 C 0.765625 2.09375 1.125 1.164062 1.84375 0.4375 C 2.570312 -0.28125 3.613281 -0.765625 4.96875 -1.015625 L 4.96875 -1.421875 C 4.238281 -1.867188 3.710938 -2.363281 3.390625 -2.90625 C 3.066406 -3.445312 2.90625 -4.070312 2.90625 -4.78125 C 2.90625 -6.519531 4.035156 -7.6875 6.296875 -8.28125 L 6.296875 -8.6875 C 5.128906 -9.351562 4.253906 -10.175781 3.671875 -11.15625 C 3.085938 -12.144531 2.796875 -13.335938 2.796875 -14.734375 C 2.796875 -16.160156 3.125 -17.414062 3.78125 -18.5 C 4.4375 -19.59375 5.398438 -20.441406 6.671875 -21.046875 C 7.941406 -21.648438 9.460938 -21.953125 11.234375 -21.953125 C 13.023438 -21.953125 14.457031 -21.640625 15.53125 -21.015625 C 16.195312 -21.984375 16.582031 -23.097656 16.6875 -24.359375 L 17.09375 -24.609375 L 20.984375 -23.65625 C 20.859375 -22.625 20.554688 -21.757812 20.078125 -21.0625 C 19.597656 -20.363281 18.847656 -19.742188 17.828125 -19.203125 L 17.828125 -18.765625 C 19.046875 -17.703125 19.65625 -16.210938 19.65625 -14.296875 C 19.65625 -12.972656 19.320312 -11.78125 18.65625 -10.71875 C 17.988281 -9.664062 17.019531 -8.832031 15.75 -8.21875 C 14.476562 -7.613281 12.972656 -7.3125 11.234375 -7.3125 L 10.40625 -7.328125 C 9.882812 -7.347656 9.519531 -7.359375 9.3125 -7.359375 C 8.820312 -7.359375 8.4375 -7.222656 8.15625 -6.953125 C 7.875 -6.691406 7.734375 -6.351562 7.734375 -5.9375 C 7.734375 -5.476562 7.914062 -5.125 8.28125 -4.875 C 8.644531 -4.625 9.179688 -4.484375 9.890625 -4.453125 L 14.703125 -4.28125 C 19.472656 -4.132812 21.859375 -2.082031 21.859375 1.875 C 21.859375 3.269531 21.503906 4.507812 20.796875 5.59375 C 20.085938 6.6875 18.9375 7.550781 17.34375 8.1875 C 15.757812 8.820312 13.703125 9.140625 11.171875 9.140625 Z M 11.234375 -11.09375 C 12.273438 -11.09375 13.085938 -11.398438 13.671875 -12.015625 C 14.253906 -12.628906 14.546875 -13.5 14.546875 -14.625 C 14.546875 -15.757812 14.253906 -16.628906 13.671875 -17.234375 C 13.085938 -17.835938 12.273438 -18.140625 11.234375 -18.140625 C 10.179688 -18.140625 9.367188 -17.835938 8.796875 -17.234375 C 8.222656 -16.628906 7.9375 -15.757812 7.9375 -14.625 C 7.9375 -13.476562 8.222656 -12.601562 8.796875 -12 C 9.367188 -11.394531 10.179688 -11.09375 11.234375 -11.09375 Z M 11.171875 5.21875 C 13.023438 5.21875 14.367188 4.957031 15.203125 4.4375 C 16.046875 3.914062 16.46875 3.238281 16.46875 2.40625 C 16.46875 1.726562 16.25 1.226562 15.8125 0.90625 C 15.382812 0.59375 14.703125 0.421875 13.765625 0.390625 L 9.515625 0.203125 C 9.367188 0.203125 9.234375 0.191406 9.109375 0.171875 C 8.984375 0.160156 8.863281 0.15625 8.75 0.15625 C 7.84375 0.15625 7.148438 0.347656 6.671875 0.734375 C 6.191406 1.128906 5.953125 1.671875 5.953125 2.359375 C 5.953125 3.273438 6.390625 3.976562 7.265625 4.46875 C 8.140625 4.96875 9.441406 5.21875 11.171875 5.21875 Z M 11.171875 5.21875 "/></g></g><g style="fill:#000000;fill-opacity:1;"><g transform="translate(138.174751, 220.624087)"><path style="stroke:none" d="M 2.015625 -2.9375 L 2.015625 -1.203125 L 5.296875 -1.203125 L 5.296875 0 L 0.59375 0 L 0.59375 -7.078125 L 5.203125 -7.078125 L 5.203125 -5.875 L 2.015625 -5.875 L 2.015625 -4.140625 L 5.046875 -4.140625 L 5.046875 -2.9375 Z M 2.015625 -2.9375 "/></g></g><g style="fill:#000000;fill-opacity:1;"><g transform="translate(145.853508, 220.624087)"><path style="stroke:none" d="M 2.015625 -1.203125 L 4.90625 -1.203125 L 4.90625 0 L 0.59375 0 L 0.59375 -7.078125 L 2.015625 -7.078125 Z M 2.015625 -1.203125 "/></g></g><g style="fill:#000000;fill-opacity:1;"><g transform="translate(153.128196, 220.624087)"><path style="stroke:none" d="M 2.015625 -2.9375 L 2.015625 -1.203125 L 5.296875 -1.203125 L 5.296875 0 L 0.59375 0 L 0.59375 -7.078125 L 5.203125 -7.078125 L 5.203125 -5.875 L 2.015625 -5.875 L 2.015625 -4.140625 L 5.046875 -4.140625 L 5.046875 -2.9375 Z M 2.015625 -2.9375 "/></g></g><g style="fill:#000000;fill-opacity:1;"><g transform="translate(160.806952, 220.624087)"><path style="stroke:none" d="M 6.5625 -2.125 C 6.457031 -1.71875 6.304688 -1.375 6.109375 -1.09375 C 5.910156 -0.8125 5.679688 -0.578125 5.421875 -0.390625 C 5.160156 -0.210938 4.875 -0.0859375 4.5625 -0.015625 C 4.25 0.0546875 3.921875 0.09375 3.578125 0.09375 C 3.148438 0.09375 2.742188 0.0351562 2.359375 -0.078125 C 1.984375 -0.191406 1.648438 -0.390625 1.359375 -0.671875 C 1.078125 -0.953125 0.851562 -1.320312 0.6875 -1.78125 C 0.519531 -2.25 0.4375 -2.832031 0.4375 -3.53125 C 0.4375 -4.21875 0.519531 -4.796875 0.6875 -5.265625 C 0.851562 -5.734375 1.078125 -6.109375 1.359375 -6.390625 C 1.648438 -6.671875 1.984375 -6.867188 2.359375 -6.984375 C 2.742188 -7.109375 3.148438 -7.171875 3.578125 -7.171875 C 3.910156 -7.171875 4.226562 -7.132812 4.53125 -7.0625 C 4.832031 -6.988281 5.109375 -6.867188 5.359375 -6.703125 C 5.609375 -6.546875 5.832031 -6.335938 6.03125 -6.078125 C 6.226562 -5.828125 6.390625 -5.515625 6.515625 -5.140625 L 5.171875 -4.71875 C 5.109375 -4.957031 5.019531 -5.15625 4.90625 -5.3125 C 4.800781 -5.476562 4.675781 -5.609375 4.53125 -5.703125 C 4.394531 -5.804688 4.242188 -5.875 4.078125 -5.90625 C 3.910156 -5.945312 3.742188 -5.96875 3.578125 -5.96875 C 3.335938 -5.96875 3.113281 -5.929688 2.90625 -5.859375 C 2.707031 -5.785156 2.53125 -5.65625 2.375 -5.46875 C 2.21875 -5.289062 2.09375 -5.039062 2 -4.71875 C 1.914062 -4.40625 1.875 -4.007812 1.875 -3.53125 C 1.875 -3.050781 1.914062 -2.65625 2 -2.34375 C 2.09375 -2.03125 2.21875 -1.78125 2.375 -1.59375 C 2.53125 -1.414062 2.707031 -1.289062 2.90625 -1.21875 C 3.113281 -1.144531 3.335938 -1.109375 3.578125 -1.109375 C 3.753906 -1.109375 3.925781 -1.128906 4.09375 -1.171875 C 4.257812 -1.222656 4.410156 -1.300781 4.546875 -1.40625 C 4.691406 -1.519531 4.816406 -1.664062 4.921875 -1.84375 C 5.035156 -2.019531 5.125 -2.238281 5.1875 -2.5 Z M 6.5625 -2.125 "/></g></g><g style="fill:#000000;fill-opacity:1;"><g transform="translate(169.687796, 220.624087)"><path style="stroke:none" d="M 3.6875 -5.875 L 3.6875 0 L 2.25 0 L 2.25 -5.875 L 0.359375 -5.875 L 0.359375 -7.078125 L 5.5625 -7.078125 L 5.5625 -5.875 Z M 3.6875 -5.875 "/></g></g><g style="fill:#000000;fill-opacity:1;"><g transform="translate(177.608984, 220.624087)"><path style="stroke:none" d="M 5.421875 -5.0625 C 5.421875 -4.488281 5.296875 -4.03125 5.046875 -3.6875 C 4.804688 -3.351562 4.445312 -3.125 3.96875 -3 L 5.71875 0 L 4.078125 0 L 2.40625 -2.875 L 2.015625 -2.875 L 2.015625 0 L 0.59375 0 L 0.59375 -7.078125 L 3 -7.078125 C 3.800781 -7.078125 4.40625 -6.898438 4.8125 -6.546875 C 5.21875 -6.191406 5.421875 -5.695312 5.421875 -5.0625 Z M 2.015625 -5.875 L 2.015625 -4.078125 L 3 -4.078125 C 3.34375 -4.078125 3.59375 -4.144531 3.75 -4.28125 C 3.914062 -4.414062 4 -4.664062 4 -5.03125 C 4 -5.28125 3.914062 -5.484375 3.75 -5.640625 C 3.59375 -5.796875 3.34375 -5.875 3 -5.875 Z M 2.015625 -5.875 "/></g></g><g style="fill:#000000;fill-opacity:1;"><g transform="translate(185.479669, 220.624087)"><path style="stroke:none" d="M 3.359375 -5.875 L 2.640625 -5.875 L 2.640625 -1.203125 L 3.359375 -1.203125 L 3.359375 0 L 0.484375 0 L 0.484375 -1.203125 L 1.21875 -1.203125 L 1.21875 -5.875 L 0.484375 -5.875 L 0.484375 -7.078125 L 3.359375 -7.078125 Z M 3.359375 -5.875 "/></g></g><g style="fill:#000000;fill-opacity:1;"><g transform="translate(191.319943, 220.624087)"><path style="stroke:none" d="M 6.5625 -2.125 C 6.457031 -1.71875 6.304688 -1.375 6.109375 -1.09375 C 5.910156 -0.8125 5.679688 -0.578125 5.421875 -0.390625 C 5.160156 -0.210938 4.875 -0.0859375 4.5625 -0.015625 C 4.25 0.0546875 3.921875 0.09375 3.578125 0.09375 C 3.148438 0.09375 2.742188 0.0351562 2.359375 -0.078125 C 1.984375 -0.191406 1.648438 -0.390625 1.359375 -0.671875 C 1.078125 -0.953125 0.851562 -1.320312 0.6875 -1.78125 C 0.519531 -2.25 0.4375 -2.832031 0.4375 -3.53125 C 0.4375 -4.21875 0.519531 -4.796875 0.6875 -5.265625 C 0.851562 -5.734375 1.078125 -6.109375 1.359375 -6.390625 C 1.648438 -6.671875 1.984375 -6.867188 2.359375 -6.984375 C 2.742188 -7.109375 3.148438 -7.171875 3.578125 -7.171875 C 3.910156 -7.171875 4.226562 -7.132812 4.53125 -7.0625 C 4.832031 -6.988281 5.109375 -6.867188 5.359375 -6.703125 C 5.609375 -6.546875 5.832031 -6.335938 6.03125 -6.078125 C 6.226562 -5.828125 6.390625 -5.515625 6.515625 -5.140625 L 5.171875 -4.71875 C 5.109375 -4.957031 5.019531 -5.15625 4.90625 -5.3125 C 4.800781 -5.476562 4.675781 -5.609375 4.53125 -5.703125 C 4.394531 -5.804688 4.242188 -5.875 4.078125 -5.90625 C 3.910156 -5.945312 3.742188 -5.96875 3.578125 -5.96875 C 3.335938 -5.96875 3.113281 -5.929688 2.90625 -5.859375 C 2.707031 -5.785156 2.53125 -5.65625 2.375 -5.46875 C 2.21875 -5.289062 2.09375 -5.039062 2 -4.71875 C 1.914062 -4.40625 1.875 -4.007812 1.875 -3.53125 C 1.875 -3.050781 1.914062 -2.65625 2 -2.34375 C 2.09375 -2.03125 2.21875 -1.78125 2.375 -1.59375 C 2.53125 -1.414062 2.707031 -1.289062 2.90625 -1.21875 C 3.113281 -1.144531 3.335938 -1.109375 3.578125 -1.109375 C 3.753906 -1.109375 3.925781 -1.128906 4.09375 -1.171875 C 4.257812 -1.222656 4.410156 -1.300781 4.546875 -1.40625 C 4.691406 -1.519531 4.816406 -1.664062 4.921875 -1.84375 C 5.035156 -2.019531 5.125 -2.238281 5.1875 -2.5 Z M 6.5625 -2.125 "/></g></g><g style="fill:#000000;fill-opacity:1;"><g transform="translate(200.200787, 220.624087)"><path style="stroke:none" d="M 4.78125 -1.53125 L 2.25 -1.53125 L 1.703125 0 L 0.171875 0 L 2.765625 -7.078125 L 4.28125 -7.078125 L 6.859375 0 L 5.328125 0 Z M 2.703125 -2.734375 L 4.3125 -2.734375 L 3.515625 -5.015625 Z M 2.703125 -2.734375 "/></g></g><g style="fill:#000000;fill-opacity:1;"><g transform="translate(209.212951, 220.624087)"><path style="stroke:none" d="M 2.015625 -1.203125 L 4.90625 -1.203125 L 4.90625 0 L 0.59375 0 L 0.59375 -7.078125 L 2.015625 -7.078125 Z M 2.015625 -1.203125 "/></g></g><g style="fill:#000000;fill-opacity:1;"><g transform="translate(216.487639, 220.624087)"><path style="stroke:none" d=""/></g></g><g style="fill:#f49516;fill-opacity:1;"><g transform="translate(221.612246, 220.624087)"><path style="stroke:none" d="M 5.65625 -2.0625 C 5.65625 -1.65625 5.585938 -1.3125 5.453125 -1.03125 C 5.316406 -0.75 5.125 -0.523438 4.875 -0.359375 C 4.632812 -0.191406 4.351562 -0.0703125 4.03125 0 C 3.707031 0.0625 3.363281 0.09375 3 0.09375 C 2.5 0.09375 2.023438 0.03125 1.578125 -0.09375 C 1.128906 -0.226562 0.734375 -0.394531 0.390625 -0.59375 L 0.953125 -1.734375 C 1.140625 -1.609375 1.3125 -1.503906 1.46875 -1.421875 C 1.625 -1.335938 1.78125 -1.269531 1.9375 -1.21875 C 2.101562 -1.175781 2.269531 -1.144531 2.4375 -1.125 C 2.601562 -1.113281 2.789062 -1.109375 3 -1.109375 C 3.351562 -1.109375 3.644531 -1.171875 3.875 -1.296875 C 4.113281 -1.429688 4.234375 -1.671875 4.234375 -2.015625 C 4.234375 -2.210938 4.179688 -2.363281 4.078125 -2.46875 C 3.972656 -2.582031 3.832031 -2.671875 3.65625 -2.734375 C 3.488281 -2.804688 3.296875 -2.867188 3.078125 -2.921875 C 2.859375 -2.972656 2.632812 -3.023438 2.40625 -3.078125 C 2.175781 -3.140625 1.953125 -3.21875 1.734375 -3.3125 C 1.515625 -3.40625 1.316406 -3.535156 1.140625 -3.703125 C 0.972656 -3.867188 0.835938 -4.078125 0.734375 -4.328125 C 0.628906 -4.585938 0.578125 -4.90625 0.578125 -5.28125 C 0.578125 -5.601562 0.640625 -5.882812 0.765625 -6.125 C 0.890625 -6.363281 1.0625 -6.5625 1.28125 -6.71875 C 1.507812 -6.875 1.773438 -6.988281 2.078125 -7.0625 C 2.378906 -7.132812 2.703125 -7.171875 3.046875 -7.171875 C 3.546875 -7.171875 4 -7.117188 4.40625 -7.015625 C 4.8125 -6.910156 5.175781 -6.78125 5.5 -6.625 L 5.03125 -5.484375 C 4.78125 -5.617188 4.488281 -5.734375 4.15625 -5.828125 C 3.832031 -5.921875 3.460938 -5.96875 3.046875 -5.96875 C 2.742188 -5.96875 2.492188 -5.910156 2.296875 -5.796875 C 2.097656 -5.679688 2 -5.507812 2 -5.28125 C 2 -5 2.085938 -4.785156 2.265625 -4.640625 C 2.453125 -4.503906 2.679688 -4.398438 2.953125 -4.328125 C 3.222656 -4.253906 3.515625 -4.1875 3.828125 -4.125 C 4.148438 -4.0625 4.441406 -3.957031 4.703125 -3.8125 C 4.972656 -3.664062 5.195312 -3.457031 5.375 -3.1875 C 5.5625 -2.925781 5.65625 -2.550781 5.65625 -2.0625 Z M 5.65625 -2.0625 "/></g></g><g style="fill:#f49516;fill-opacity:1;"><g transform="translate(229.684965, 220.624087)"><path style="stroke:none" d="M 1.78125 -7.078125 L 3.015625 -4.734375 L 4.25 -7.078125 L 5.859375 -7.078125 L 3.734375 -3.125 L 3.734375 0 L 2.3125 0 L 2.3125 -3.125 L 0.171875 -7.078125 Z M 1.78125 -7.078125 "/></g></g><g style="fill:#f49516;fill-opacity:1;"><g transform="translate(237.697065, 220.624087)"><path style="stroke:none" d="M 0.59375 0 L 0.59375 -7.078125 L 2.65625 -7.078125 C 3.425781 -7.078125 4.050781 -6.992188 4.53125 -6.828125 C 5.007812 -6.671875 5.378906 -6.4375 5.640625 -6.125 C 5.898438 -5.8125 6.078125 -5.429688 6.171875 -4.984375 C 6.265625 -4.535156 6.3125 -4.03125 6.3125 -3.46875 C 6.3125 -2.957031 6.257812 -2.488281 6.15625 -2.0625 C 6.0625 -1.644531 5.882812 -1.28125 5.625 -0.96875 C 5.363281 -0.664062 5.003906 -0.425781 4.546875 -0.25 C 4.085938 -0.0820312 3.503906 0 2.796875 0 Z M 2.015625 -5.875 L 2.015625 -1.203125 L 2.828125 -1.203125 C 3.273438 -1.203125 3.632812 -1.253906 3.90625 -1.359375 C 4.175781 -1.460938 4.382812 -1.613281 4.53125 -1.8125 C 4.675781 -2.007812 4.769531 -2.25 4.8125 -2.53125 C 4.863281 -2.8125 4.890625 -3.125 4.890625 -3.46875 C 4.890625 -3.863281 4.867188 -4.210938 4.828125 -4.515625 C 4.785156 -4.816406 4.6875 -5.066406 4.53125 -5.265625 C 4.382812 -5.460938 4.160156 -5.613281 3.859375 -5.71875 C 3.566406 -5.820312 3.164062 -5.875 2.65625 -5.875 Z M 2.015625 -5.875 "/></g></g><g style="fill:#f49516;fill-opacity:1;"><g transform="translate(246.426377, 220.624087)"><path style="stroke:none" d="M 1.890625 -7.078125 L 4.734375 -2.796875 L 4.734375 -7.078125 L 6.15625 -7.078125 L 6.15625 0 L 4.859375 0 L 2.015625 -4.28125 L 2.015625 0 L 0.59375 0 L 0.59375 -7.078125 Z M 1.890625 -7.078125 "/></g></g><g style="fill:#f49516;fill-opacity:1;"><g transform="translate(255.155689, 220.624087)"><path style="stroke:none" d="M 2.015625 -2.9375 L 2.015625 -1.203125 L 5.296875 -1.203125 L 5.296875 0 L 0.59375 0 L 0.59375 -7.078125 L 5.203125 -7.078125 L 5.203125 -5.875 L 2.015625 -5.875 L 2.015625 -4.140625 L 5.046875 -4.140625 L 5.046875 -2.9375 Z M 2.015625 -2.9375 "/></g></g><g style="fill:#f49516;fill-opacity:1;"><g transform="translate(262.834446, 220.624087)"><path style="stroke:none" d="M 1.78125 -7.078125 L 3.015625 -4.734375 L 4.25 -7.078125 L 5.859375 -7.078125 L 3.734375 -3.125 L 3.734375 0 L 2.3125 0 L 2.3125 -3.125 L 0.171875 -7.078125 Z M 1.78125 -7.078125 "/></g></g><g clip-rule="nonzero" clip-path="url(#eba3b685a0)"><path style=" stroke:none;fill-rule:nonzero;fill:#f49516;fill-opacity:1;" d="M 66.296875 215.03125 L 131.398438 215.03125 L 131.398438 221.453125 L 66.296875 221.453125 Z M 66.296875 215.03125 "/></g><g clip-rule="nonzero" clip-path="url(#60417d792d)"><g clip-rule="nonzero" clip-path="url(#b3993c59b2)"><path style=" stroke:none;fill-rule:nonzero;fill:#f49516;fill-opacity:1;" d="M 66.292969 218.199219 L 66.589844 165.664062 L 73.003906 165.699219 L 72.710938 218.234375 Z M 66.292969 218.199219 "/></g></g><g clip-rule="nonzero" clip-path="url(#6b06376aa4)"><path style=" stroke:none;fill-rule:nonzero;fill:#000000;fill-opacity:1;" d="M 288.390625 157.597656 L 223.289062 157.597656 L 223.289062 151.175781 L 288.390625 151.175781 Z M 288.390625 157.597656 "/></g><g clip-rule="nonzero" clip-path="url(#7986776de5)"><g clip-rule="nonzero" clip-path="url(#eaff72ca13)"><path style=" stroke:none;fill-rule:nonzero;fill:#000000;fill-opacity:1;" d="M 288.394531 154.429688 L 288.097656 206.964844 L 281.683594 206.929688 L 281.976562 154.394531 Z M 288.394531 154.429688 "/></g></g></g></svg>