<svg xmlns="http://www.w3.org/2000/svg" xmlns:xlink="http://www.w3.org/1999/xlink" width="500" zoomAndPan="magnify" viewBox="0 0 375 374.999991" height="500" preserveAspectRatio="xMidYMid meet" version="1.2"><defs><clipPath id="7ef0ac1746"><path d="M 17.949219 198.332031 L 222.710938 198.332031 L 222.710938 204.859375 L 17.949219 204.859375 Z M 17.949219 198.332031 "/></clipPath></defs><g id="e3736fc7cd"><g style="fill:#5170ff;fill-opacity:1;"><g transform="translate(16.14451, 190.555033)"><path style="stroke:none" d="M 28.375 0 L 3.34375 0 L 3.34375 -37.53125 L 28.375 -37.53125 L 28.375 -31.1875 L 10.421875 -31.1875 L 10.421875 -21.9375 L 26.515625 -21.9375 L 26.515625 -15.640625 L 10.421875 -15.640625 L 10.421875 -6.34375 L 28.375 -6.34375 Z M 28.375 0 "/></g></g><g style="fill:#5170ff;fill-opacity:1;"><g transform="translate(48.152626, 190.555033)"><path style="stroke:none" d="M 21.15625 0 L 13.375 0 L 0.140625 -37.53125 L 7.578125 -37.53125 L 17.265625 -7.765625 L 26.953125 -37.53125 L 34.375 -37.53125 Z M 21.15625 0 "/></g></g><g style="fill:#5170ff;fill-opacity:1;"><g transform="translate(84.143207, 190.555033)"><path style="stroke:none" d="M 28.375 0 L 3.34375 0 L 3.34375 -37.53125 L 28.375 -37.53125 L 28.375 -31.1875 L 10.421875 -31.1875 L 10.421875 -21.9375 L 26.515625 -21.9375 L 26.515625 -15.640625 L 10.421875 -15.640625 L 10.421875 -6.34375 L 28.375 -6.34375 Z M 28.375 0 "/></g></g><g style="fill:#5170ff;fill-opacity:1;"><g transform="translate(116.151323, 190.555033)"><path style="stroke:none" d="M 25.53125 -16.28125 L 32.265625 0 L 24.734375 0 L 18.796875 -15 L 10.421875 -15 L 10.421875 0 L 3.34375 0 L 3.34375 -37.53125 L 19.53125 -37.53125 C 21.882812 -37.53125 23.957031 -37.144531 25.75 -36.375 C 27.539062 -35.601562 28.9375 -34.40625 29.9375 -32.78125 C 30.9375 -31.15625 31.4375 -29.050781 31.4375 -26.46875 C 31.4375 -24.007812 30.910156 -21.910156 29.859375 -20.171875 C 28.804688 -18.429688 27.363281 -17.132812 25.53125 -16.28125 Z M 18.546875 -31.1875 L 10.421875 -31.1875 L 10.421875 -21.203125 L 18.546875 -21.203125 C 20.441406 -21.203125 21.890625 -21.625 22.890625 -22.46875 C 23.890625 -23.320312 24.390625 -24.570312 24.390625 -26.21875 C 24.390625 -27.820312 23.878906 -29.050781 22.859375 -29.90625 C 21.847656 -30.757812 20.410156 -31.1875 18.546875 -31.1875 Z M 18.546875 -31.1875 "/></g></g><g style="fill:#5170ff;fill-opacity:1;"><g transform="translate(151.502743, 190.555033)"><path style="stroke:none" d="M 20.953125 0 L 13.53125 0 L 13.53125 -14.703125 L -0.140625 -37.53125 L 8.109375 -37.53125 L 17.21875 -21.59375 L 26.359375 -37.53125 L 34.578125 -37.53125 L 20.953125 -14.703125 Z M 20.953125 0 "/></g></g><g clip-rule="nonzero" clip-path="url(#7ef0ac1746)"><path style=" stroke:none;fill-rule:nonzero;fill:#000000;fill-opacity:1;" d="M 17.949219 198.332031 L 222.714844 198.332031 L 222.714844 204.859375 L 17.949219 204.859375 Z M 17.949219 198.332031 "/></g><g style="fill:#000000;fill-opacity:1;"><g transform="translate(190.914074, 189.760683)"><path style="stroke:none" d="M 13.15625 -33.625 L 0.203125 -33.625 L 0.203125 -35.984375 L 28.734375 -35.984375 L 28.734375 -33.625 L 15.78125 -33.625 L 15.78125 0 L 13.15625 0 Z M 13.15625 -33.625 "/></g></g><g style="fill:#000000;fill-opacity:1;"><g transform="translate(221.385923, 189.760683)"><path style="stroke:none" d="M 35.578125 -35.984375 L 35.578125 0 L 32.953125 0 L 32.953125 -17.125 L 8.890625 -17.125 L 8.890625 0 L 6.265625 0 L 6.265625 -35.984375 L 8.890625 -35.984375 L 8.890625 -19.4375 L 32.953125 -19.4375 L 32.953125 -35.984375 Z M 35.578125 -35.984375 "/></g></g><g style="fill:#000000;fill-opacity:1;"><g transform="translate(264.755181, 189.760683)"><path style="stroke:none" d="M 6.265625 -35.984375 L 8.890625 -35.984375 L 8.890625 0 L 6.265625 0 Z M 6.265625 -35.984375 "/></g></g><g style="fill:#000000;fill-opacity:1;"><g transform="translate(281.456102, 189.760683)"><path style="stroke:none" d="M 35.578125 -35.984375 L 35.578125 0 L 33.40625 0 L 8.890625 -31.25 L 8.890625 0 L 6.265625 0 L 6.265625 -35.984375 L 8.484375 -35.984375 L 32.953125 -4.734375 L 32.953125 -35.984375 Z M 35.578125 -35.984375 "/></g></g><g style="fill:#000000;fill-opacity:1;"><g transform="translate(324.82536, 189.760683)"><path style="stroke:none" d="M 31.96875 -17.84375 L 34.5 -17.84375 L 34.5 -4.375 C 32.914062 -2.863281 31 -1.710938 28.75 -0.921875 C 26.507812 -0.140625 24.140625 0.25 21.640625 0.25 C 18.078125 0.25 14.863281 -0.535156 12 -2.109375 C 9.132812 -3.679688 6.890625 -5.851562 5.265625 -8.625 C 3.640625 -11.40625 2.828125 -14.523438 2.828125 -17.984375 C 2.828125 -21.453125 3.640625 -24.570312 5.265625 -27.34375 C 6.890625 -30.125 9.132812 -32.300781 12 -33.875 C 14.863281 -35.445312 18.09375 -36.234375 21.6875 -36.234375 C 24.332031 -36.234375 26.757812 -35.8125 28.96875 -34.96875 C 31.175781 -34.132812 33.066406 -32.914062 34.640625 -31.3125 L 33 -29.5625 C 31.488281 -31.070312 29.800781 -32.160156 27.9375 -32.828125 C 26.070312 -33.492188 24.007812 -33.828125 21.75 -33.828125 C 18.664062 -33.828125 15.878906 -33.140625 13.390625 -31.765625 C 10.910156 -30.398438 8.96875 -28.507812 7.5625 -26.09375 C 6.15625 -23.675781 5.453125 -20.972656 5.453125 -17.984375 C 5.453125 -15.046875 6.160156 -12.367188 7.578125 -9.953125 C 9.003906 -7.535156 10.953125 -5.628906 13.421875 -4.234375 C 15.890625 -2.847656 18.664062 -2.15625 21.75 -2.15625 C 25.851562 -2.15625 29.257812 -3.253906 31.96875 -5.453125 Z M 31.96875 -17.84375 "/></g></g><g style="fill:#5170ff;fill-opacity:1;"><g transform="translate(226.772021, 203.315291)"><path style="stroke:none" d="M 4.96875 -1.03125 L 4.96875 0 L 0.65625 0 L 0.65625 -5.5625 L 4.875 -5.5625 L 4.875 -4.53125 L 1.9375 -4.53125 L 1.9375 -3.328125 L 4.53125 -3.328125 L 4.53125 -2.328125 L 1.9375 -2.328125 L 1.9375 -1.03125 Z M 4.96875 -1.03125 "/></g></g><g style="fill:#5170ff;fill-opacity:1;"><g transform="translate(234.872845, 203.315291)"><path style="stroke:none" d="M 0.65625 -5.5625 L 1.953125 -5.5625 L 1.953125 -1.046875 L 4.734375 -1.046875 L 4.734375 0 L 0.65625 0 Z M 0.65625 -5.5625 "/></g></g><g style="fill:#5170ff;fill-opacity:1;"><g transform="translate(242.440502, 203.315291)"><path style="stroke:none" d="M 4.96875 -1.03125 L 4.96875 0 L 0.65625 0 L 0.65625 -5.5625 L 4.875 -5.5625 L 4.875 -4.53125 L 1.9375 -4.53125 L 1.9375 -3.328125 L 4.53125 -3.328125 L 4.53125 -2.328125 L 1.9375 -2.328125 L 1.9375 -1.03125 Z M 4.96875 -1.03125 "/></g></g><g style="fill:#5170ff;fill-opacity:1;"><g transform="translate(250.541327, 203.315291)"><path style="stroke:none" d="M 3.328125 0.09375 C 2.753906 0.09375 2.238281 -0.0234375 1.78125 -0.265625 C 1.320312 -0.515625 0.960938 -0.859375 0.703125 -1.296875 C 0.441406 -1.734375 0.3125 -2.226562 0.3125 -2.78125 C 0.3125 -3.332031 0.441406 -3.828125 0.703125 -4.265625 C 0.960938 -4.703125 1.320312 -5.039062 1.78125 -5.28125 C 2.238281 -5.53125 2.753906 -5.65625 3.328125 -5.65625 C 3.816406 -5.65625 4.253906 -5.570312 4.640625 -5.40625 C 5.023438 -5.238281 5.351562 -4.992188 5.625 -4.671875 L 4.796875 -3.90625 C 4.421875 -4.34375 3.953125 -4.5625 3.390625 -4.5625 C 3.046875 -4.5625 2.738281 -4.484375 2.46875 -4.328125 C 2.195312 -4.179688 1.984375 -3.972656 1.828125 -3.703125 C 1.679688 -3.429688 1.609375 -3.125 1.609375 -2.78125 C 1.609375 -2.4375 1.679688 -2.128906 1.828125 -1.859375 C 1.984375 -1.585938 2.195312 -1.375 2.46875 -1.21875 C 2.738281 -1.070312 3.046875 -1 3.390625 -1 C 3.953125 -1 4.421875 -1.21875 4.796875 -1.65625 L 5.625 -0.90625 C 5.351562 -0.570312 5.019531 -0.320312 4.625 -0.15625 C 4.238281 0.0078125 3.804688 0.09375 3.328125 0.09375 Z M 3.328125 0.09375 "/></g></g><g style="fill:#5170ff;fill-opacity:1;"><g transform="translate(259.135521, 203.315291)"><path style="stroke:none" d="M 1.8125 -4.515625 L 0.03125 -4.515625 L 0.03125 -5.5625 L 4.890625 -5.5625 L 4.890625 -4.515625 L 3.109375 -4.515625 L 3.109375 0 L 1.8125 0 Z M 1.8125 -4.515625 "/></g></g><g style="fill:#5170ff;fill-opacity:1;"><g transform="translate(266.814584, 203.315291)"><path style="stroke:none" d="M 4.203125 0 L 3.140625 -1.546875 L 1.953125 -1.546875 L 1.953125 0 L 0.65625 0 L 0.65625 -5.5625 L 3.0625 -5.5625 C 3.5625 -5.5625 3.992188 -5.476562 4.359375 -5.3125 C 4.722656 -5.15625 5 -4.925781 5.1875 -4.625 C 5.382812 -4.320312 5.484375 -3.960938 5.484375 -3.546875 C 5.484375 -3.128906 5.382812 -2.769531 5.1875 -2.46875 C 4.988281 -2.175781 4.707031 -1.953125 4.34375 -1.796875 L 5.59375 0 Z M 4.1875 -3.546875 C 4.1875 -3.859375 4.082031 -4.097656 3.875 -4.265625 C 3.675781 -4.429688 3.382812 -4.515625 3 -4.515625 L 1.953125 -4.515625 L 1.953125 -2.578125 L 3 -2.578125 C 3.382812 -2.578125 3.675781 -2.660156 3.875 -2.828125 C 4.082031 -2.992188 4.1875 -3.234375 4.1875 -3.546875 Z M 4.1875 -3.546875 "/></g></g><g style="fill:#5170ff;fill-opacity:1;"><g transform="translate(275.424695, 203.315291)"><path style="stroke:none" d="M 0.65625 -5.5625 L 1.953125 -5.5625 L 1.953125 0 L 0.65625 0 Z M 0.65625 -5.5625 "/></g></g><g style="fill:#5170ff;fill-opacity:1;"><g transform="translate(280.796059, 203.315291)"><path style="stroke:none" d="M 3.328125 0.09375 C 2.753906 0.09375 2.238281 -0.0234375 1.78125 -0.265625 C 1.320312 -0.515625 0.960938 -0.859375 0.703125 -1.296875 C 0.441406 -1.734375 0.3125 -2.226562 0.3125 -2.78125 C 0.3125 -3.332031 0.441406 -3.828125 0.703125 -4.265625 C 0.960938 -4.703125 1.320312 -5.039062 1.78125 -5.28125 C 2.238281 -5.53125 2.753906 -5.65625 3.328125 -5.65625 C 3.816406 -5.65625 4.253906 -5.570312 4.640625 -5.40625 C 5.023438 -5.238281 5.351562 -4.992188 5.625 -4.671875 L 4.796875 -3.90625 C 4.421875 -4.34375 3.953125 -4.5625 3.390625 -4.5625 C 3.046875 -4.5625 2.738281 -4.484375 2.46875 -4.328125 C 2.195312 -4.179688 1.984375 -3.972656 1.828125 -3.703125 C 1.679688 -3.429688 1.609375 -3.125 1.609375 -2.78125 C 1.609375 -2.4375 1.679688 -2.128906 1.828125 -1.859375 C 1.984375 -1.585938 2.195312 -1.375 2.46875 -1.21875 C 2.738281 -1.070312 3.046875 -1 3.390625 -1 C 3.953125 -1 4.421875 -1.21875 4.796875 -1.65625 L 5.625 -0.90625 C 5.351562 -0.570312 5.019531 -0.320312 4.625 -0.15625 C 4.238281 0.0078125 3.804688 0.09375 3.328125 0.09375 Z M 3.328125 0.09375 "/></g></g><g style="fill:#5170ff;fill-opacity:1;"><g transform="translate(289.390254, 203.315291)"><path style="stroke:none" d="M 4.328125 -1.1875 L 1.734375 -1.1875 L 1.25 0 L -0.078125 0 L 2.40625 -5.5625 L 3.6875 -5.5625 L 6.171875 0 L 4.8125 0 Z M 3.921875 -2.171875 L 3.03125 -4.296875 L 2.15625 -2.171875 Z M 3.921875 -2.171875 "/></g></g><g style="fill:#5170ff;fill-opacity:1;"><g transform="translate(298.247046, 203.315291)"><path style="stroke:none" d="M 0.65625 -5.5625 L 1.953125 -5.5625 L 1.953125 -1.046875 L 4.734375 -1.046875 L 4.734375 0 L 0.65625 0 Z M 0.65625 -5.5625 "/></g></g><g style="fill:#5170ff;fill-opacity:1;"><g transform="translate(305.814703, 203.315291)"><path style="stroke:none" d=""/></g></g><g style="fill:#5170ff;fill-opacity:1;"><g transform="translate(310.827971, 203.315291)"><path style="stroke:none" d="M 2.484375 0.09375 C 2.046875 0.09375 1.617188 0.0351562 1.203125 -0.078125 C 0.796875 -0.203125 0.46875 -0.359375 0.21875 -0.546875 L 0.65625 -1.515625 C 0.894531 -1.335938 1.175781 -1.195312 1.5 -1.09375 C 1.832031 -0.988281 2.164062 -0.9375 2.5 -0.9375 C 2.863281 -0.9375 3.132812 -0.988281 3.3125 -1.09375 C 3.488281 -1.207031 3.578125 -1.351562 3.578125 -1.53125 C 3.578125 -1.664062 3.523438 -1.773438 3.421875 -1.859375 C 3.316406 -1.953125 3.179688 -2.023438 3.015625 -2.078125 C 2.859375 -2.128906 2.640625 -2.1875 2.359375 -2.25 C 1.929688 -2.351562 1.582031 -2.453125 1.3125 -2.546875 C 1.050781 -2.648438 0.820312 -2.8125 0.625 -3.03125 C 0.425781 -3.257812 0.328125 -3.554688 0.328125 -3.921875 C 0.328125 -4.242188 0.414062 -4.535156 0.59375 -4.796875 C 0.769531 -5.066406 1.035156 -5.273438 1.390625 -5.421875 C 1.742188 -5.578125 2.175781 -5.65625 2.6875 -5.65625 C 3.039062 -5.65625 3.382812 -5.613281 3.71875 -5.53125 C 4.0625 -5.445312 4.359375 -5.328125 4.609375 -5.171875 L 4.21875 -4.1875 C 3.695312 -4.476562 3.179688 -4.625 2.671875 -4.625 C 2.304688 -4.625 2.035156 -4.566406 1.859375 -4.453125 C 1.691406 -4.335938 1.609375 -4.1875 1.609375 -4 C 1.609375 -3.800781 1.707031 -3.65625 1.90625 -3.5625 C 2.113281 -3.46875 2.421875 -3.378906 2.828125 -3.296875 C 3.242188 -3.191406 3.585938 -3.085938 3.859375 -2.984375 C 4.128906 -2.890625 4.359375 -2.734375 4.546875 -2.515625 C 4.742188 -2.296875 4.84375 -2 4.84375 -1.625 C 4.84375 -1.3125 4.753906 -1.019531 4.578125 -0.75 C 4.398438 -0.488281 4.132812 -0.28125 3.78125 -0.125 C 3.425781 0.0195312 2.992188 0.09375 2.484375 0.09375 Z M 2.484375 0.09375 "/></g></g><g style="fill:#5170ff;fill-opacity:1;"><g transform="translate(318.666189, 203.315291)"><path style="stroke:none" d="M 3.328125 -1.96875 L 3.328125 0 L 2.046875 0 L 2.046875 -1.984375 L -0.109375 -5.5625 L 1.25 -5.5625 L 2.75 -3.09375 L 4.234375 -5.5625 L 5.5 -5.5625 Z M 3.328125 -1.96875 "/></g></g><g style="fill:#5170ff;fill-opacity:1;"><g transform="translate(326.806799, 203.315291)"><path style="stroke:none" d="M 0.65625 -5.5625 L 3.1875 -5.5625 C 3.789062 -5.5625 4.320312 -5.445312 4.78125 -5.21875 C 5.25 -4.988281 5.613281 -4.664062 5.875 -4.25 C 6.132812 -3.832031 6.265625 -3.34375 6.265625 -2.78125 C 6.265625 -2.226562 6.132812 -1.738281 5.875 -1.3125 C 5.613281 -0.894531 5.25 -0.570312 4.78125 -0.34375 C 4.320312 -0.113281 3.789062 0 3.1875 0 L 0.65625 0 Z M 3.125 -1.0625 C 3.675781 -1.0625 4.117188 -1.210938 4.453125 -1.515625 C 4.785156 -1.828125 4.953125 -2.25 4.953125 -2.78125 C 4.953125 -3.3125 4.785156 -3.734375 4.453125 -4.046875 C 4.117188 -4.359375 3.675781 -4.515625 3.125 -4.515625 L 1.953125 -4.515625 L 1.953125 -1.0625 Z M 3.125 -1.0625 "/></g></g><g style="fill:#5170ff;fill-opacity:1;"><g transform="translate(336.141045, 203.315291)"><path style="stroke:none" d="M 5.765625 -5.5625 L 5.765625 0 L 4.703125 0 L 1.9375 -3.375 L 1.9375 0 L 0.65625 0 L 0.65625 -5.5625 L 1.71875 -5.5625 L 4.5 -2.1875 L 4.5 -5.5625 Z M 5.765625 -5.5625 "/></g></g><g style="fill:#5170ff;fill-opacity:1;"><g transform="translate(345.332062, 203.315291)"><path style="stroke:none" d="M 4.96875 -1.03125 L 4.96875 0 L 0.65625 0 L 0.65625 -5.5625 L 4.875 -5.5625 L 4.875 -4.53125 L 1.9375 -4.53125 L 1.9375 -3.328125 L 4.53125 -3.328125 L 4.53125 -2.328125 L 1.9375 -2.328125 L 1.9375 -1.03125 Z M 4.96875 -1.03125 "/></g></g><g style="fill:#5170ff;fill-opacity:1;"><g transform="translate(353.432886, 203.315291)"><path style="stroke:none" d="M 3.328125 -1.96875 L 3.328125 0 L 2.046875 0 L 2.046875 -1.984375 L -0.109375 -5.5625 L 1.25 -5.5625 L 2.75 -3.09375 L 4.234375 -5.5625 L 5.5 -5.5625 Z M 3.328125 -1.96875 "/></g></g></g></svg>