<svg xmlns="http://www.w3.org/2000/svg" xmlns:xlink="http://www.w3.org/1999/xlink" width="500" zoomAndPan="magnify" viewBox="0 0 375 374.999991" height="500" preserveAspectRatio="xMidYMid meet" version="1.2"><defs><clipPath id="4e2ee2dae8"><path d="M 26.363281 133.84375 L 348.277344 133.84375 L 348.277344 231.34375 L 26.363281 231.34375 Z M 26.363281 133.84375 "/></clipPath></defs><g id="2c9624c358"><g clip-rule="nonzero" clip-path="url(#4e2ee2dae8)"><path style="fill:none;stroke-width:16;stroke-linecap:butt;stroke-linejoin:miter;stroke:#5271ff;stroke-opacity:1;stroke-miterlimit:4;" d="M -0.00151246 -0.00126592 L 429.681557 -0.00126592 L 429.681557 130.139365 L -0.00151246 130.139365 Z M -0.00151246 -0.00126592 " transform="matrix(0.74919,0,0,0.74919,26.364414,133.844698)"/></g><path style=" stroke:none;fill-rule:nonzero;fill:#5271ff;fill-opacity:1;" d="M 46.40625 215.90625 L 328.574219 215.90625 C 330.664062 215.90625 332.671875 216.734375 334.152344 218.214844 C 335.628906 219.695312 336.460938 221.699219 336.460938 223.792969 L 336.460938 239.566406 C 336.460938 241.660156 335.628906 243.664062 334.152344 245.144531 C 332.671875 246.625 330.664062 247.457031 328.574219 247.457031 L 46.40625 247.457031 C 44.3125 247.457031 42.308594 246.625 40.828125 245.144531 C 39.347656 243.664062 38.515625 241.660156 38.515625 239.566406 L 38.515625 223.792969 C 38.515625 221.699219 39.347656 219.695312 40.828125 218.214844 C 42.308594 216.734375 44.3125 215.90625 46.40625 215.90625 Z M 46.40625 215.90625 "/><g style="fill:#ffffff;fill-opacity:1;"><g transform="translate(50.111478, 238.055317)"><path style="stroke:none" d="M 0.640625 0 L 0.640625 -14.609375 L 6.5 -14.609375 L 6.5 -11.78125 L 3.625 -11.78125 L 3.625 -8.9375 L 6.375 -8.9375 L 6.375 -6.1875 L 3.625 -6.1875 L 3.625 -2.84375 L 6.6875 -2.84375 L 6.6875 0 Z M 0.640625 0 "/></g></g><g style="fill:#ffffff;fill-opacity:1;"><g transform="translate(66.700295, 238.055317)"><path style="stroke:none" d="M 0.640625 0 L 0.640625 -14.609375 L 3.5625 -14.609375 L 3.5625 -2.484375 L 6.578125 -2.484375 L 6.578125 0 Z M 0.640625 0 "/></g></g><g style="fill:#ffffff;fill-opacity:1;"><g transform="translate(83.034228, 238.055317)"><path style="stroke:none" d="M 0.640625 0 L 0.640625 -14.609375 L 6.5 -14.609375 L 6.5 -11.78125 L 3.625 -11.78125 L 3.625 -8.9375 L 6.375 -8.9375 L 6.375 -6.1875 L 3.625 -6.1875 L 3.625 -2.84375 L 6.6875 -2.84375 L 6.6875 0 Z M 0.640625 0 "/></g></g><g style="fill:#ffffff;fill-opacity:1;"><g transform="translate(99.623045, 238.055317)"><path style="stroke:none" d="M 4.046875 0.140625 C 2.984375 0.140625 2.128906 -0.191406 1.484375 -0.859375 C 0.847656 -1.535156 0.53125 -2.457031 0.53125 -3.625 L 0.53125 -10.359375 C 0.53125 -11.804688 0.816406 -12.894531 1.390625 -13.625 C 1.972656 -14.363281 2.878906 -14.734375 4.109375 -14.734375 C 5.191406 -14.734375 6.0625 -14.4375 6.71875 -13.84375 C 7.375 -13.257812 7.703125 -12.414062 7.703125 -11.3125 L 7.703125 -8.78125 L 4.796875 -8.78125 L 4.796875 -10.953125 C 4.796875 -11.367188 4.742188 -11.65625 4.640625 -11.8125 C 4.535156 -11.96875 4.359375 -12.046875 4.109375 -12.046875 C 3.847656 -12.046875 3.671875 -11.957031 3.578125 -11.78125 C 3.484375 -11.601562 3.4375 -11.335938 3.4375 -10.984375 L 3.4375 -3.65625 C 3.4375 -3.269531 3.492188 -2.988281 3.609375 -2.8125 C 3.722656 -2.632812 3.890625 -2.546875 4.109375 -2.546875 C 4.566406 -2.546875 4.796875 -2.914062 4.796875 -3.65625 L 4.796875 -6.296875 L 7.734375 -6.296875 L 7.734375 -3.53125 C 7.734375 -1.082031 6.503906 0.140625 4.046875 0.140625 Z M 4.046875 0.140625 "/></g></g><g style="fill:#ffffff;fill-opacity:1;"><g transform="translate(117.265381, 238.055317)"><path style="stroke:none" d="M 1.90625 0 L 1.90625 -11.796875 L 0.171875 -11.796875 L 0.171875 -14.609375 L 6.5625 -14.609375 L 6.5625 -11.796875 L 4.828125 -11.796875 L 4.828125 0 Z M 1.90625 0 "/></g></g><g style="fill:#ffffff;fill-opacity:1;"><g transform="translate(133.582332, 238.055317)"><path style="stroke:none" d="M 0.640625 -14.609375 L 5.140625 -14.609375 C 5.847656 -14.609375 6.394531 -14.445312 6.78125 -14.125 C 7.175781 -13.800781 7.441406 -13.347656 7.578125 -12.765625 C 7.710938 -12.179688 7.78125 -11.429688 7.78125 -10.515625 C 7.78125 -9.691406 7.671875 -9.046875 7.453125 -8.578125 C 7.242188 -8.117188 6.875 -7.796875 6.34375 -7.609375 C 6.78125 -7.523438 7.097656 -7.304688 7.296875 -6.953125 C 7.492188 -6.597656 7.59375 -6.125 7.59375 -5.53125 L 7.5625 0 L 4.703125 0 L 4.703125 -5.71875 C 4.703125 -6.125 4.625 -6.378906 4.46875 -6.484375 C 4.3125 -6.597656 4.023438 -6.65625 3.609375 -6.65625 L 3.609375 0 L 0.640625 0 Z M 4.3125 -9.203125 C 4.726562 -9.203125 4.9375 -9.640625 4.9375 -10.515625 C 4.9375 -10.898438 4.914062 -11.1875 4.875 -11.375 C 4.84375 -11.570312 4.78125 -11.707031 4.6875 -11.78125 C 4.601562 -11.863281 4.472656 -11.90625 4.296875 -11.90625 L 3.625 -11.90625 L 3.625 -9.203125 Z M 4.3125 -9.203125 "/></g></g><g style="fill:#ffffff;fill-opacity:1;"><g transform="translate(151.275641, 238.055317)"><path style="stroke:none" d="M 0.515625 0 L 0.515625 -14.609375 L 3.328125 -14.609375 L 3.328125 0 Z M 0.515625 0 "/></g></g><g style="fill:#ffffff;fill-opacity:1;"><g transform="translate(164.720914, 238.055317)"><path style="stroke:none" d="M 4.046875 0.140625 C 2.984375 0.140625 2.128906 -0.191406 1.484375 -0.859375 C 0.847656 -1.535156 0.53125 -2.457031 0.53125 -3.625 L 0.53125 -10.359375 C 0.53125 -11.804688 0.816406 -12.894531 1.390625 -13.625 C 1.972656 -14.363281 2.878906 -14.734375 4.109375 -14.734375 C 5.191406 -14.734375 6.0625 -14.4375 6.71875 -13.84375 C 7.375 -13.257812 7.703125 -12.414062 7.703125 -11.3125 L 7.703125 -8.78125 L 4.796875 -8.78125 L 4.796875 -10.953125 C 4.796875 -11.367188 4.742188 -11.65625 4.640625 -11.8125 C 4.535156 -11.96875 4.359375 -12.046875 4.109375 -12.046875 C 3.847656 -12.046875 3.671875 -11.957031 3.578125 -11.78125 C 3.484375 -11.601562 3.4375 -11.335938 3.4375 -10.984375 L 3.4375 -3.65625 C 3.4375 -3.269531 3.492188 -2.988281 3.609375 -2.8125 C 3.722656 -2.632812 3.890625 -2.546875 4.109375 -2.546875 C 4.566406 -2.546875 4.796875 -2.914062 4.796875 -3.65625 L 4.796875 -6.296875 L 7.734375 -6.296875 L 7.734375 -3.53125 C 7.734375 -1.082031 6.503906 0.140625 4.046875 0.140625 Z M 4.046875 0.140625 "/></g></g><g style="fill:#ffffff;fill-opacity:1;"><g transform="translate(182.363251, 238.055317)"><path style="stroke:none" d="M 0.25 0 L 1.671875 -14.609375 L 6.609375 -14.609375 L 8 0 L 5.234375 0 L 5.03125 -2.359375 L 3.265625 -2.359375 L 3.09375 0 Z M 3.484375 -4.6875 L 4.8125 -4.6875 L 4.171875 -12.125 L 4.03125 -12.125 Z M 3.484375 -4.6875 "/></g></g><g style="fill:#ffffff;fill-opacity:1;"><g transform="translate(200.192492, 238.055317)"><path style="stroke:none" d="M 0.640625 0 L 0.640625 -14.609375 L 3.5625 -14.609375 L 3.5625 -2.484375 L 6.578125 -2.484375 L 6.578125 0 Z M 0.640625 0 "/></g></g><g style="fill:#ffffff;fill-opacity:1;"><g transform="translate(216.526426, 238.055317)"><path style="stroke:none" d=""/></g></g><g style="fill:#ffffff;fill-opacity:1;"><g transform="translate(230.090638, 238.055317)"><path style="stroke:none" d="M 4.109375 0.140625 C 2.785156 0.140625 1.828125 -0.1875 1.234375 -0.84375 C 0.648438 -1.507812 0.359375 -2.570312 0.359375 -4.03125 L 0.359375 -5.453125 L 3.234375 -5.453125 L 3.234375 -3.640625 C 3.234375 -2.910156 3.460938 -2.546875 3.921875 -2.546875 C 4.179688 -2.546875 4.363281 -2.625 4.46875 -2.78125 C 4.570312 -2.9375 4.625 -3.191406 4.625 -3.546875 C 4.625 -4.023438 4.566406 -4.421875 4.453125 -4.734375 C 4.335938 -5.046875 4.191406 -5.304688 4.015625 -5.515625 C 3.835938 -5.722656 3.523438 -6.050781 3.078125 -6.5 L 1.8125 -7.75 C 0.84375 -8.707031 0.359375 -9.757812 0.359375 -10.90625 C 0.359375 -12.15625 0.644531 -13.101562 1.21875 -13.75 C 1.789062 -14.40625 2.625 -14.734375 3.71875 -14.734375 C 5.03125 -14.734375 5.972656 -14.382812 6.546875 -13.6875 C 7.128906 -12.988281 7.421875 -11.898438 7.421875 -10.421875 L 4.453125 -10.421875 L 4.4375 -11.421875 C 4.4375 -11.617188 4.378906 -11.769531 4.265625 -11.875 C 4.160156 -11.988281 4.015625 -12.046875 3.828125 -12.046875 C 3.597656 -12.046875 3.425781 -11.984375 3.3125 -11.859375 C 3.195312 -11.734375 3.140625 -11.566406 3.140625 -11.359375 C 3.140625 -10.878906 3.414062 -10.382812 3.96875 -9.875 L 5.65625 -8.25 C 6.050781 -7.863281 6.378906 -7.492188 6.640625 -7.140625 C 6.898438 -6.796875 7.109375 -6.390625 7.265625 -5.921875 C 7.429688 -5.453125 7.515625 -4.894531 7.515625 -4.25 C 7.515625 -2.8125 7.25 -1.71875 6.71875 -0.96875 C 6.195312 -0.226562 5.328125 0.140625 4.109375 0.140625 Z M 4.109375 0.140625 "/></g></g><g style="fill:#ffffff;fill-opacity:1;"><g transform="translate(247.51207, 238.055317)"><path style="stroke:none" d="M 2.40625 0 L 2.40625 -4.8125 L 0.078125 -14.609375 L 2.96875 -14.609375 L 3.796875 -9.65625 L 4.609375 -14.609375 L 7.5 -14.609375 L 5.171875 -4.8125 L 5.171875 0 Z M 2.40625 0 "/></g></g><g style="fill:#ffffff;fill-opacity:1;"><g transform="translate(264.678618, 238.055317)"><path style="stroke:none" d="M 0.640625 -14.609375 L 4.671875 -14.609375 C 5.710938 -14.609375 6.492188 -14.316406 7.015625 -13.734375 C 7.535156 -13.160156 7.800781 -12.304688 7.8125 -11.171875 L 7.859375 -4.328125 C 7.867188 -2.890625 7.617188 -1.804688 7.109375 -1.078125 C 6.597656 -0.359375 5.753906 0 4.578125 0 L 0.640625 0 Z M 4.09375 -2.578125 C 4.625 -2.578125 4.890625 -2.835938 4.890625 -3.359375 L 4.890625 -10.890625 C 4.890625 -11.222656 4.863281 -11.472656 4.8125 -11.640625 C 4.769531 -11.804688 4.675781 -11.914062 4.53125 -11.96875 C 4.394531 -12.019531 4.1875 -12.046875 3.90625 -12.046875 L 3.59375 -12.046875 L 3.59375 -2.578125 Z M 4.09375 -2.578125 "/></g></g><g style="fill:#ffffff;fill-opacity:1;"><g transform="translate(282.643805, 238.055317)"><path style="stroke:none" d="M 0.640625 0 L 0.640625 -14.609375 L 3.65625 -14.609375 L 5 -7.609375 L 5 -14.609375 L 7.8125 -14.609375 L 7.8125 0 L 4.96875 0 L 3.5 -7.3125 L 3.5 0 Z M 0.640625 0 "/></g></g><g style="fill:#ffffff;fill-opacity:1;"><g transform="translate(300.693951, 238.055317)"><path style="stroke:none" d="M 0.640625 0 L 0.640625 -14.609375 L 6.5 -14.609375 L 6.5 -11.78125 L 3.625 -11.78125 L 3.625 -8.9375 L 6.375 -8.9375 L 6.375 -6.1875 L 3.625 -6.1875 L 3.625 -2.84375 L 6.6875 -2.84375 L 6.6875 0 Z M 0.640625 0 "/></g></g><g style="fill:#ffffff;fill-opacity:1;"><g transform="translate(317.282756, 238.055317)"><path style="stroke:none" d="M 2.40625 0 L 2.40625 -4.8125 L 0.078125 -14.609375 L 2.96875 -14.609375 L 3.796875 -9.65625 L 4.609375 -14.609375 L 7.5 -14.609375 L 5.171875 -4.8125 L 5.171875 0 Z M 2.40625 0 "/></g></g><g style="fill:#000000;fill-opacity:1;"><g transform="translate(43.893438, 204.833951)"><path style="stroke:none" d="M -3.796875 0 L 8.71875 -54.28125 L 30.453125 -54.28125 L 28.046875 -43.78125 L 17.375 -43.78125 L 14.90625 -33.234375 L 25.140625 -33.234375 L 22.8125 -23 L 12.578125 -23 L 9.671875 -10.546875 L 21.046875 -10.546875 L 18.640625 0 Z M -3.796875 0 "/></g></g><g style="fill:#000000;fill-opacity:1;"><g transform="translate(71.501472, 204.833951)"><path style="stroke:none" d="M 1.140625 0 L 6.953125 -54.34375 L 17.3125 -54.34375 L 12.765625 -17.375 L 24.828125 -54.34375 L 35.203125 -54.34375 L 15.984375 0 Z M 1.140625 0 "/></g></g><g style="fill:#000000;fill-opacity:1;"><g transform="translate(102.710527, 204.833951)"><path style="stroke:none" d="M -3.796875 0 L 8.71875 -54.28125 L 30.453125 -54.28125 L 28.046875 -43.78125 L 17.375 -43.78125 L 14.90625 -33.234375 L 25.140625 -33.234375 L 22.8125 -23 L 12.578125 -23 L 9.671875 -10.546875 L 21.046875 -10.546875 L 18.640625 0 Z M -3.796875 0 "/></g></g><g style="fill:#000000;fill-opacity:1;"><g transform="translate(130.318561, 204.833951)"><path style="stroke:none" d="M 8.71875 -54.28125 L 25.40625 -54.28125 C 28.050781 -54.28125 29.960938 -53.675781 31.140625 -52.46875 C 32.328125 -51.269531 32.921875 -49.585938 32.921875 -47.421875 C 32.921875 -45.253906 32.539062 -42.484375 31.78125 -39.109375 C 31.0625 -36.035156 30.101562 -33.632812 28.90625 -31.90625 C 27.707031 -30.175781 26.035156 -28.976562 23.890625 -28.3125 C 25.441406 -27.96875 26.4375 -27.144531 26.875 -25.84375 C 27.320312 -24.539062 27.296875 -22.769531 26.796875 -20.53125 L 21.921875 0 L 11.3125 0 L 16.171875 -21.234375 C 16.554688 -22.742188 16.492188 -23.707031 15.984375 -24.125 C 15.484375 -24.550781 14.453125 -24.765625 12.890625 -24.765625 L 7.203125 0 L -3.796875 0 Z M 17.75 -34.1875 C 19.269531 -34.1875 20.410156 -35.828125 21.171875 -39.109375 C 21.503906 -40.546875 21.679688 -41.617188 21.703125 -42.328125 C 21.722656 -43.046875 21.597656 -43.539062 21.328125 -43.8125 C 21.054688 -44.09375 20.601562 -44.234375 19.96875 -44.234375 L 17.4375 -44.234375 L 15.171875 -34.1875 Z M 17.75 -34.1875 "/></g></g><g style="fill:#000000;fill-opacity:1;"><g transform="translate(162.033022, 204.833951)"><path style="stroke:none" d="M 2.71875 0 L 6.828125 -17.875 L 6.578125 -54.28125 L 17.3125 -54.28125 L 16.109375 -35.890625 L 23.375 -54.28125 L 34.125 -54.28125 L 17.0625 -17.875 L 12.953125 0 Z M 2.71875 0 "/></g></g><g style="fill:#000000;fill-opacity:1;"><g transform="translate(191.789032, 204.833951)"><path style="stroke:none" d="M 0.828125 0 L 10.9375 -43.859375 L 4.484375 -43.859375 L 6.890625 -54.28125 L 30.640625 -54.28125 L 28.25 -43.859375 L 21.796875 -43.859375 L 11.6875 0 Z M 0.828125 0 "/></g></g><g style="fill:#000000;fill-opacity:1;"><g transform="translate(218.386256, 204.833951)"><path style="stroke:none" d="M -3.796875 0 L 8.71875 -54.28125 L 19.53125 -54.28125 L 15.03125 -34.875 L 20.15625 -34.875 L 24.640625 -54.28125 L 35.453125 -54.28125 L 22.9375 0 L 12.125 0 L 17.8125 -24.640625 L 12.703125 -24.640625 L 7.015625 0 Z M -3.796875 0 "/></g></g><g style="fill:#000000;fill-opacity:1;"><g transform="translate(251.490578, 204.833951)"><path style="stroke:none" d="M -4.296875 0 L 8.21875 -54.28125 L 18.703125 -54.28125 L 6.1875 0 Z M -4.296875 0 "/></g></g><g style="fill:#000000;fill-opacity:1;"><g transform="translate(267.411094, 204.833951)"><path style="stroke:none" d="M -3.796875 0 L 8.71875 -54.28125 L 19.90625 -54.28125 L 18.890625 -28.3125 L 24.890625 -54.28125 L 35.390625 -54.28125 L 22.875 0 L 12.25 0 L 13.078125 -27.171875 L 6.828125 0 Z M -3.796875 0 "/></g></g><g style="fill:#000000;fill-opacity:1;"><g transform="translate(300.452245, 204.833951)"><path style="stroke:none" d="M 7.265625 0.5 C 3.347656 0.5 0.75 -0.875 -0.53125 -3.625 C -1.820312 -6.382812 -1.8125 -10.566406 -0.5 -16.171875 L 4.859375 -39.5625 C 6.046875 -44.570312 8.046875 -48.359375 10.859375 -50.921875 C 13.679688 -53.492188 17.304688 -54.78125 21.734375 -54.78125 C 25.316406 -54.78125 27.925781 -54.0625 29.5625 -52.625 C 31.207031 -51.195312 32.09375 -49.113281 32.21875 -46.375 C 32.351562 -43.632812 31.9375 -40.117188 30.96875 -35.828125 L 20.34375 -35.828125 L 21.484375 -40.6875 C 21.773438 -42 21.828125 -43.007812 21.640625 -43.71875 C 21.453125 -44.4375 20.894531 -44.796875 19.96875 -44.796875 C 17.90625 -44.796875 16.554688 -43.445312 15.921875 -40.75 L 9.859375 -14.46875 C 9.472656 -12.820312 9.382812 -11.578125 9.59375 -10.734375 C 9.8125 -9.898438 10.445312 -9.484375 11.5 -9.484375 C 12.550781 -9.484375 13.390625 -9.898438 14.015625 -10.734375 C 14.648438 -11.578125 15.160156 -12.820312 15.546875 -14.46875 L 17.3125 -22.234375 L 14.40625 -22.234375 L 16.546875 -31.59375 L 29.828125 -31.59375 L 22.5625 0 L 18.203125 0 L 17.375 -4.546875 C 14.675781 -1.179688 11.304688 0.5 7.265625 0.5 Z M 7.265625 0.5 "/></g></g></g></svg>