<svg xmlns="http://www.w3.org/2000/svg" xmlns:xlink="http://www.w3.org/1999/xlink" width="500" zoomAndPan="magnify" viewBox="0 0 375 374.999991" height="500" preserveAspectRatio="xMidYMid meet" version="1.2"><defs><clipPath id="c6f358fd20"><path d="M 37.519531 142.570312 L 337.480469 142.570312 L 337.480469 224.8125 L 37.519531 224.8125 Z M 37.519531 142.570312 "/></clipPath></defs><g id="5913a99df0"><g clip-rule="nonzero" clip-path="url(#c6f358fd20)"><path style="fill:none;stroke-width:4;stroke-linecap:butt;stroke-linejoin:miter;stroke:#0cc0df;stroke-opacity:1;stroke-miterlimit:4;" d="M -0.000137688 0.00251128 L 399.947831 0.00251128 L 399.947831 109.658776 L -0.000137688 109.658776 Z M -0.000137688 0.00251128 " transform="matrix(0.75,0,0,0.75,37.519635,142.568429)"/></g><path style=" stroke:none;fill-rule:nonzero;fill:#0cc0df;fill-opacity:1;" d="M 76.320312 216.671875 L 298.539062 216.671875 C 301.011719 216.671875 303.011719 218.675781 303.011719 221.144531 L 303.011719 230.089844 C 303.011719 232.5625 301.011719 234.5625 298.539062 234.5625 L 76.320312 234.5625 C 73.851562 234.5625 71.847656 232.5625 71.847656 230.089844 L 71.847656 221.144531 C 71.847656 218.675781 73.851562 216.671875 76.320312 216.671875 Z M 76.320312 216.671875 "/><g style="fill:#ffffff;fill-opacity:1;"><g transform="translate(79.350674, 229.371431)"><path style="stroke:none" d="M 6.34375 0 L 0.75 0 L 0.75 -8.390625 L 6.34375 -8.390625 L 6.34375 -6.96875 L 2.328125 -6.96875 L 2.328125 -4.90625 L 5.921875 -4.90625 L 5.921875 -3.5 L 2.328125 -3.5 L 2.328125 -1.421875 L 6.34375 -1.421875 Z M 6.34375 0 "/></g></g><g style="fill:#ffffff;fill-opacity:1;"><g transform="translate(92.380813, 229.371431)"><path style="stroke:none" d="M 5.890625 0 L 0.75 0 L 0.75 -8.390625 L 2.328125 -8.390625 L 2.328125 -1.421875 L 5.890625 -1.421875 Z M 5.890625 0 "/></g></g><g style="fill:#ffffff;fill-opacity:1;"><g transform="translate(104.586543, 229.371431)"><path style="stroke:none" d="M 6.34375 0 L 0.75 0 L 0.75 -8.390625 L 6.34375 -8.390625 L 6.34375 -6.96875 L 2.328125 -6.96875 L 2.328125 -4.90625 L 5.921875 -4.90625 L 5.921875 -3.5 L 2.328125 -3.5 L 2.328125 -1.421875 L 6.34375 -1.421875 Z M 6.34375 0 "/></g></g><g style="fill:#ffffff;fill-opacity:1;"><g transform="translate(117.616682, 229.371431)"><path style="stroke:none" d="M 4.5 0.15625 C 3.800781 0.15625 3.195312 0.0390625 2.6875 -0.1875 C 2.175781 -0.425781 1.753906 -0.75 1.421875 -1.15625 C 1.085938 -1.5625 0.835938 -2.023438 0.671875 -2.546875 C 0.503906 -3.066406 0.421875 -3.617188 0.421875 -4.203125 C 0.421875 -4.785156 0.503906 -5.335938 0.671875 -5.859375 C 0.835938 -6.378906 1.085938 -6.84375 1.421875 -7.25 C 1.753906 -7.65625 2.175781 -7.972656 2.6875 -8.203125 C 3.195312 -8.429688 3.800781 -8.546875 4.5 -8.546875 C 5.1875 -8.546875 5.78125 -8.425781 6.28125 -8.1875 C 6.789062 -7.957031 7.195312 -7.632812 7.5 -7.21875 C 7.800781 -6.800781 7.988281 -6.316406 8.0625 -5.765625 L 6.34375 -5.765625 C 6.257812 -6.210938 6.046875 -6.550781 5.703125 -6.78125 C 5.367188 -7.007812 4.953125 -7.125 4.453125 -7.125 C 3.941406 -7.125 3.507812 -7 3.15625 -6.75 C 2.800781 -6.507812 2.53125 -6.171875 2.34375 -5.734375 C 2.164062 -5.296875 2.078125 -4.785156 2.078125 -4.203125 C 2.078125 -3.617188 2.164062 -3.101562 2.34375 -2.65625 C 2.53125 -2.21875 2.800781 -1.875 3.15625 -1.625 C 3.507812 -1.382812 3.941406 -1.265625 4.453125 -1.265625 C 4.953125 -1.265625 5.367188 -1.382812 5.703125 -1.625 C 6.046875 -1.863281 6.257812 -2.234375 6.34375 -2.734375 L 8.0625 -2.734375 C 7.988281 -2.148438 7.800781 -1.640625 7.5 -1.203125 C 7.195312 -0.773438 6.789062 -0.441406 6.28125 -0.203125 C 5.78125 0.0351562 5.1875 0.15625 4.5 0.15625 Z M 4.5 0.15625 "/></g></g><g style="fill:#ffffff;fill-opacity:1;"><g transform="translate(132.251683, 229.371431)"><path style="stroke:none" d="M 4.25 0 L 2.671875 0 L 2.671875 -6.96875 L 0.109375 -6.96875 L 0.109375 -8.390625 L 6.8125 -8.390625 L 6.8125 -6.96875 L 4.25 -6.96875 Z M 4.25 0 "/></g></g><g style="fill:#ffffff;fill-opacity:1;"><g transform="translate(145.380756, 229.371431)"><path style="stroke:none" d="M 5.703125 -3.640625 L 7.21875 0 L 5.53125 0 L 4.203125 -3.359375 L 2.328125 -3.359375 L 2.328125 0 L 0.75 0 L 0.75 -8.390625 L 4.359375 -8.390625 C 4.890625 -8.390625 5.351562 -8.300781 5.75 -8.125 C 6.15625 -7.957031 6.46875 -7.691406 6.6875 -7.328125 C 6.914062 -6.960938 7.03125 -6.492188 7.03125 -5.921875 C 7.03125 -5.367188 6.910156 -4.894531 6.671875 -4.5 C 6.441406 -4.113281 6.117188 -3.828125 5.703125 -3.640625 Z M 4.140625 -6.96875 L 2.328125 -6.96875 L 2.328125 -4.734375 L 4.140625 -4.734375 C 4.566406 -4.734375 4.890625 -4.828125 5.109375 -5.015625 C 5.335938 -5.210938 5.453125 -5.492188 5.453125 -5.859375 C 5.453125 -6.222656 5.335938 -6.5 5.109375 -6.6875 C 4.890625 -6.875 4.566406 -6.96875 4.140625 -6.96875 Z M 4.140625 -6.96875 "/></g></g><g style="fill:#ffffff;fill-opacity:1;"><g transform="translate(159.158366, 229.371431)"><path style="stroke:none" d="M 2.328125 0 L 0.75 0 L 0.75 -8.390625 L 2.328125 -8.390625 Z M 2.328125 0 "/></g></g><g style="fill:#ffffff;fill-opacity:1;"><g transform="translate(168.440153, 229.371431)"><path style="stroke:none" d="M 4.5 0.15625 C 3.800781 0.15625 3.195312 0.0390625 2.6875 -0.1875 C 2.175781 -0.425781 1.753906 -0.75 1.421875 -1.15625 C 1.085938 -1.5625 0.835938 -2.023438 0.671875 -2.546875 C 0.503906 -3.066406 0.421875 -3.617188 0.421875 -4.203125 C 0.421875 -4.785156 0.503906 -5.335938 0.671875 -5.859375 C 0.835938 -6.378906 1.085938 -6.84375 1.421875 -7.25 C 1.753906 -7.65625 2.175781 -7.972656 2.6875 -8.203125 C 3.195312 -8.429688 3.800781 -8.546875 4.5 -8.546875 C 5.1875 -8.546875 5.78125 -8.425781 6.28125 -8.1875 C 6.789062 -7.957031 7.195312 -7.632812 7.5 -7.21875 C 7.800781 -6.800781 7.988281 -6.316406 8.0625 -5.765625 L 6.34375 -5.765625 C 6.257812 -6.210938 6.046875 -6.550781 5.703125 -6.78125 C 5.367188 -7.007812 4.953125 -7.125 4.453125 -7.125 C 3.941406 -7.125 3.507812 -7 3.15625 -6.75 C 2.800781 -6.507812 2.53125 -6.171875 2.34375 -5.734375 C 2.164062 -5.296875 2.078125 -4.785156 2.078125 -4.203125 C 2.078125 -3.617188 2.164062 -3.101562 2.34375 -2.65625 C 2.53125 -2.21875 2.800781 -1.875 3.15625 -1.625 C 3.507812 -1.382812 3.941406 -1.265625 4.453125 -1.265625 C 4.953125 -1.265625 5.367188 -1.382812 5.703125 -1.625 C 6.046875 -1.863281 6.257812 -2.234375 6.34375 -2.734375 L 8.0625 -2.734375 C 7.988281 -2.148438 7.800781 -1.640625 7.5 -1.203125 C 7.195312 -0.773438 6.789062 -0.441406 6.28125 -0.203125 C 5.78125 0.0351562 5.1875 0.15625 4.5 0.15625 Z M 4.5 0.15625 "/></g></g><g style="fill:#ffffff;fill-opacity:1;"><g transform="translate(183.075154, 229.371431)"><path style="stroke:none" d="M 1.734375 0 L 0.078125 0 L 3.03125 -8.390625 L 4.78125 -8.390625 L 7.734375 0 L 6.078125 0 L 5.5 -1.734375 L 2.296875 -1.734375 Z M 3.90625 -6.671875 L 2.75 -3.109375 L 5.0625 -3.109375 Z M 3.90625 -6.671875 "/></g></g><g style="fill:#ffffff;fill-opacity:1;"><g transform="translate(197.083603, 229.371431)"><path style="stroke:none" d="M 5.890625 0 L 0.75 0 L 0.75 -8.390625 L 2.328125 -8.390625 L 2.328125 -1.421875 L 5.890625 -1.421875 Z M 5.890625 0 "/></g></g><g style="fill:#ffffff;fill-opacity:1;"><g transform="translate(209.289333, 229.371431)"><path style="stroke:none" d=""/></g></g><g style="fill:#ffffff;fill-opacity:1;"><g transform="translate(218.439215, 229.371431)"><path style="stroke:none" d="M 4.078125 0.15625 C 3.671875 0.15625 3.257812 0.101562 2.84375 0 C 2.4375 -0.09375 2.054688 -0.25 1.703125 -0.46875 C 1.347656 -0.6875 1.050781 -0.976562 0.8125 -1.34375 C 0.582031 -1.71875 0.441406 -2.179688 0.390625 -2.734375 L 2.03125 -2.734375 C 2.125 -2.335938 2.273438 -2.023438 2.484375 -1.796875 C 2.703125 -1.578125 2.953125 -1.421875 3.234375 -1.328125 C 3.515625 -1.242188 3.800781 -1.203125 4.09375 -1.203125 C 4.519531 -1.203125 4.878906 -1.289062 5.171875 -1.46875 C 5.472656 -1.65625 5.625 -1.953125 5.625 -2.359375 C 5.625 -2.648438 5.523438 -2.875 5.328125 -3.03125 C 5.140625 -3.195312 4.894531 -3.320312 4.59375 -3.40625 C 4.289062 -3.5 3.957031 -3.582031 3.59375 -3.65625 C 3.25 -3.738281 2.90625 -3.828125 2.5625 -3.921875 C 2.21875 -4.015625 1.898438 -4.144531 1.609375 -4.3125 C 1.316406 -4.488281 1.082031 -4.71875 0.90625 -5 C 0.738281 -5.28125 0.65625 -5.640625 0.65625 -6.078125 C 0.65625 -6.617188 0.785156 -7.070312 1.046875 -7.4375 C 1.304688 -7.800781 1.660156 -8.078125 2.109375 -8.265625 C 2.554688 -8.453125 3.0625 -8.546875 3.625 -8.546875 C 4.164062 -8.546875 4.675781 -8.445312 5.15625 -8.25 C 5.632812 -8.0625 6.035156 -7.773438 6.359375 -7.390625 C 6.691406 -7.003906 6.90625 -6.503906 7 -5.890625 L 5.375 -5.890625 C 5.269531 -6.335938 5.054688 -6.664062 4.734375 -6.875 C 4.410156 -7.082031 4.03125 -7.1875 3.59375 -7.1875 C 3.195312 -7.1875 2.867188 -7.101562 2.609375 -6.9375 C 2.359375 -6.78125 2.234375 -6.539062 2.234375 -6.21875 C 2.234375 -5.957031 2.320312 -5.753906 2.5 -5.609375 C 2.675781 -5.460938 2.910156 -5.347656 3.203125 -5.265625 C 3.503906 -5.179688 3.820312 -5.097656 4.15625 -5.015625 C 4.507812 -4.941406 4.863281 -4.851562 5.21875 -4.75 C 5.570312 -4.644531 5.898438 -4.5 6.203125 -4.3125 C 6.515625 -4.132812 6.757812 -3.894531 6.9375 -3.59375 C 7.125 -3.289062 7.21875 -2.90625 7.21875 -2.4375 C 7.21875 -1.644531 6.941406 -1.015625 6.390625 -0.546875 C 5.835938 -0.078125 5.066406 0.15625 4.078125 0.15625 Z M 4.078125 0.15625 "/></g></g><g style="fill:#ffffff;fill-opacity:1;"><g transform="translate(232.293776, 229.371431)"><path style="stroke:none" d="M 4.6875 0 L 3.03125 0 L 3.03125 -3.28125 L -0.03125 -8.390625 L 1.8125 -8.390625 L 3.84375 -4.828125 L 5.890625 -8.390625 L 7.734375 -8.390625 L 4.6875 -3.28125 Z M 4.6875 0 "/></g></g><g style="fill:#ffffff;fill-opacity:1;"><g transform="translate(246.192304, 229.371431)"><path style="stroke:none" d="M 3.1875 0 L 0.75 0 L 0.75 -8.390625 L 3.1875 -8.390625 C 4.613281 -8.390625 5.703125 -8.023438 6.453125 -7.296875 C 7.203125 -6.578125 7.578125 -5.539062 7.578125 -4.1875 C 7.578125 -2.84375 7.195312 -1.804688 6.4375 -1.078125 C 5.6875 -0.359375 4.601562 0 3.1875 0 Z M 2.328125 -6.96875 L 2.328125 -1.421875 L 3.171875 -1.421875 C 3.722656 -1.421875 4.210938 -1.503906 4.640625 -1.671875 C 5.066406 -1.847656 5.398438 -2.140625 5.640625 -2.546875 C 5.878906 -2.953125 6 -3.5 6 -4.1875 C 6 -4.84375 5.878906 -5.375 5.640625 -5.78125 C 5.410156 -6.1875 5.082031 -6.484375 4.65625 -6.671875 C 4.238281 -6.867188 3.742188 -6.96875 3.171875 -6.96875 Z M 2.328125 -6.96875 "/></g></g><g style="fill:#ffffff;fill-opacity:1;"><g transform="translate(260.398609, 229.371431)"><path style="stroke:none" d="M 2.328125 0 L 0.75 0 L 0.75 -8.390625 L 2.53125 -8.390625 L 5.96875 -2.390625 L 5.96875 -8.390625 L 7.5625 -8.390625 L 7.5625 0 L 5.765625 0 L 2.328125 -6.015625 Z M 2.328125 0 "/></g></g><g style="fill:#ffffff;fill-opacity:1;"><g transform="translate(274.901717, 229.371431)"><path style="stroke:none" d="M 6.34375 0 L 0.75 0 L 0.75 -8.390625 L 6.34375 -8.390625 L 6.34375 -6.96875 L 2.328125 -6.96875 L 2.328125 -4.90625 L 5.921875 -4.90625 L 5.921875 -3.5 L 2.328125 -3.5 L 2.328125 -1.421875 L 6.34375 -1.421875 Z M 6.34375 0 "/></g></g><g style="fill:#ffffff;fill-opacity:1;"><g transform="translate(287.931845, 229.371431)"><path style="stroke:none" d="M 4.6875 0 L 3.03125 0 L 3.03125 -3.28125 L -0.03125 -8.390625 L 1.8125 -8.390625 L 3.84375 -4.828125 L 5.890625 -8.390625 L 7.734375 -8.390625 L 4.6875 -3.28125 Z M 4.6875 0 "/></g></g><g style="fill:#000000;fill-opacity:1;"><g transform="translate(62.079651, 209.099986)"><path style="stroke:none" d="M -3.296875 0 L 7.625 -47.390625 L 26.59375 -47.390625 L 24.5 -38.234375 L 15.171875 -38.234375 L 13.03125 -29.015625 L 21.96875 -29.015625 L 19.921875 -20.078125 L 10.984375 -20.078125 L 8.453125 -9.21875 L 18.375 -9.21875 L 16.28125 0 Z M -3.296875 0 "/></g></g><g style="fill:#000000;fill-opacity:1;"><g transform="translate(86.190016, 209.099986)"><path style="stroke:none" d="M 1 0 L 6.0625 -47.453125 L 15.109375 -47.453125 L 11.140625 -15.171875 L 21.6875 -47.453125 L 30.734375 -47.453125 L 13.953125 0 Z M 1 0 "/></g></g><g style="fill:#000000;fill-opacity:1;"><g transform="translate(113.445172, 209.099986)"><path style="stroke:none" d="M -3.296875 0 L 7.625 -47.390625 L 26.59375 -47.390625 L 24.5 -38.234375 L 15.171875 -38.234375 L 13.03125 -29.015625 L 21.96875 -29.015625 L 19.921875 -20.078125 L 10.984375 -20.078125 L 8.453125 -9.21875 L 18.375 -9.21875 L 16.28125 0 Z M -3.296875 0 "/></g></g><g style="fill:#000000;fill-opacity:1;"><g transform="translate(137.555537, 209.099986)"><path style="stroke:none" d="M 7.625 -47.390625 L 22.1875 -47.390625 C 24.5 -47.390625 26.171875 -46.863281 27.203125 -45.8125 C 28.234375 -44.769531 28.75 -43.300781 28.75 -41.40625 C 28.75 -39.507812 28.421875 -37.09375 27.765625 -34.15625 C 27.140625 -31.46875 26.300781 -29.367188 25.25 -27.859375 C 24.195312 -26.347656 22.734375 -25.300781 20.859375 -24.71875 C 22.222656 -24.425781 23.097656 -23.707031 23.484375 -22.5625 C 23.867188 -21.425781 23.84375 -19.882812 23.40625 -17.9375 L 19.15625 0 L 9.890625 0 L 14.125 -18.53125 C 14.457031 -19.863281 14.398438 -20.710938 13.953125 -21.078125 C 13.515625 -21.441406 12.617188 -21.625 11.265625 -21.625 L 6.296875 0 L -3.296875 0 Z M 15.515625 -29.84375 C 16.835938 -29.84375 17.828125 -31.28125 18.484375 -34.15625 C 18.785156 -35.40625 18.941406 -36.34375 18.953125 -36.96875 C 18.972656 -37.59375 18.863281 -38.023438 18.625 -38.265625 C 18.382812 -38.503906 17.988281 -38.625 17.4375 -38.625 L 15.234375 -38.625 L 13.25 -29.84375 Z M 15.515625 -29.84375 "/></g></g><g style="fill:#000000;fill-opacity:1;"><g transform="translate(165.252069, 209.099986)"><path style="stroke:none" d="M 2.375 0 L 5.953125 -15.609375 L 5.734375 -47.390625 L 15.109375 -47.390625 L 14.0625 -31.34375 L 20.40625 -47.390625 L 29.796875 -47.390625 L 14.890625 -15.609375 L 11.3125 0 Z M 2.375 0 "/></g></g><g style="fill:#000000;fill-opacity:1;"><g transform="translate(191.23827, 209.099986)"><path style="stroke:none" d="M 0.71875 0 L 9.546875 -38.296875 L 3.921875 -38.296875 L 6.015625 -47.390625 L 26.765625 -47.390625 L 24.65625 -38.296875 L 19.03125 -38.296875 L 10.203125 0 Z M 0.71875 0 "/></g></g><g style="fill:#000000;fill-opacity:1;"><g transform="translate(214.465884, 209.099986)"><path style="stroke:none" d="M -3.296875 0 L 7.625 -47.390625 L 17.0625 -47.390625 L 13.140625 -30.453125 L 17.609375 -30.453125 L 21.53125 -47.390625 L 30.953125 -47.390625 L 20.03125 0 L 10.59375 0 L 15.5625 -21.515625 L 11.09375 -21.515625 L 6.125 0 Z M -3.296875 0 "/></g></g><g style="fill:#000000;fill-opacity:1;"><g transform="translate(243.376186, 209.099986)"><path style="stroke:none" d="M -3.75 0 L 7.171875 -47.390625 L 16.34375 -47.390625 L 5.421875 0 Z M -3.75 0 "/></g></g><g style="fill:#000000;fill-opacity:1;"><g transform="translate(257.279773, 209.099986)"><path style="stroke:none" d="M -3.296875 0 L 7.625 -47.390625 L 17.390625 -47.390625 L 16.5 -24.71875 L 21.75 -47.390625 L 30.90625 -47.390625 L 19.984375 0 L 10.703125 0 L 11.421875 -23.71875 L 5.96875 0 Z M -3.296875 0 "/></g></g><g style="fill:#000000;fill-opacity:1;"><g transform="translate(286.134904, 209.099986)"><path style="stroke:none" d="M 6.359375 0.4375 C 2.929688 0.4375 0.660156 -0.765625 -0.453125 -3.171875 C -1.578125 -5.578125 -1.570312 -9.226562 -0.4375 -14.125 L 4.25 -34.53125 C 5.28125 -38.914062 7.023438 -42.226562 9.484375 -44.46875 C 11.953125 -46.707031 15.117188 -47.828125 18.984375 -47.828125 C 22.109375 -47.828125 24.390625 -47.203125 25.828125 -45.953125 C 27.265625 -44.703125 28.035156 -42.878906 28.140625 -40.484375 C 28.253906 -38.097656 27.890625 -35.03125 27.046875 -31.28125 L 17.765625 -31.28125 L 18.765625 -35.53125 C 19.023438 -36.664062 19.070312 -37.546875 18.90625 -38.171875 C 18.738281 -38.796875 18.25 -39.109375 17.4375 -39.109375 C 15.632812 -39.109375 14.457031 -37.929688 13.90625 -35.578125 L 8.609375 -12.640625 C 8.285156 -11.203125 8.210938 -10.113281 8.390625 -9.375 C 8.578125 -8.644531 9.128906 -8.28125 10.046875 -8.28125 C 10.960938 -8.28125 11.695312 -8.644531 12.25 -9.375 C 12.800781 -10.113281 13.242188 -11.203125 13.578125 -12.640625 L 15.125 -19.421875 L 12.59375 -19.421875 L 14.46875 -27.59375 L 26.046875 -27.59375 L 19.703125 0 L 15.890625 0 L 15.171875 -3.96875 C 12.828125 -1.03125 9.890625 0.4375 6.359375 0.4375 Z M 6.359375 0.4375 "/></g></g></g></svg>